<svg width="14" height="12" viewBox="0 0 14 12" fill="none" xmlns="http://www.w3.org/2000/svg">
<path fill-rule="evenodd" clip-rule="evenodd" d="M7.10912 0.326304C7.49322 -0.0421175 8.11355 -0.0421175 8.49765 0.326304L13.7092 5.32523C14.0969 5.69715 14.0969 6.30281 13.7092 6.67473L8.49778 11.6737C8.30509 11.8583 8.05342 11.95 7.80352 11.95C7.55363 11.95 7.30193 11.8584 7.10928 11.6737C6.72154 11.3018 6.72151 10.6961 7.10925 10.3242L10.6257 6.95106H0.985036C0.447111 6.95106 0 6.53107 0 5.99998C0 5.46882 0.44712 5.0489 0.985036 5.0489H10.6257L7.10912 1.67581C6.72138 1.30388 6.72138 0.698228 7.10912 0.326304Z" fill="#381DDB"/>
</svg>
