<svg width="18" height="16" viewBox="0 0 18 16" fill="none" xmlns="http://www.w3.org/2000/svg">
<path fill-rule="evenodd" clip-rule="evenodd" d="M7.27087 15.3043C6.70413 15.4681 6.09086 15.5508 5.44738 15.5508C4.73079 15.5508 4.042 15.4687 3.39973 15.3061C2.15688 14.9926 1.23848 14.398 0.809499 13.6319C0.624612 13.3008 0.53096 12.9479 0.53096 12.5824C0.53096 12.206 0.620986 11.8241 0.798623 11.4459C1.47956 9.99457 3.27466 9.01817 5.2631 9.01817H5.31989C5.15857 8.73359 5.08063 8.43874 5.08063 8.12878C5.08063 7.97471 5.10117 7.81762 5.14225 7.6575C3.05654 7.61038 1.49588 6.08294 1.49588 4.06913C1.49588 2.64743 2.63239 1.26199 4.2577 0.702497C4.74408 0.534528 5.24014 0.44873 5.72773 0.44873H10.188C10.3396 0.44873 10.4744 0.547216 10.5215 0.691621C10.5686 0.835422 10.5167 0.993724 10.394 1.08254L9.39646 1.80457C9.33665 1.84686 9.26475 1.86982 9.19043 1.86982H8.83334C9.29435 2.42267 9.56443 3.21116 9.56443 4.09632C9.56443 5.07332 9.07019 5.99715 8.17053 6.70105C7.4757 7.24241 7.44851 7.39165 7.44851 7.7004C7.45697 7.87018 7.94093 8.42424 8.47505 8.80187C9.71911 9.68159 10.1819 10.545 10.1819 11.9854C10.1813 13.4905 9.03878 14.7907 7.27087 15.3043ZM17.3436 7.65388C17.3436 7.84722 17.1859 8.00432 16.9931 8.00432H14.4585V10.5402C14.4585 10.7335 14.3008 10.8906 14.1093 10.8906H13.3872C13.1927 10.8906 13.0356 10.7335 13.0356 10.5402V8.00432H10.5028C10.3094 8.00432 10.1523 7.84843 10.1523 7.65388V6.93306C10.1523 6.73972 10.3094 6.58141 10.5028 6.58141H13.0356V4.04798C13.0356 3.85403 13.1927 3.69754 13.3872 3.69754H14.1093C14.3008 3.69754 14.4585 3.85403 14.4585 4.04798V6.58141H16.9925C17.1853 6.58141 17.343 6.73851 17.343 6.93185L17.3436 7.65388ZM6.81794 10.3685L6.81793 10.3684C6.77571 10.3394 6.73282 10.31 6.68909 10.2804C6.38517 10.1873 6.06253 10.139 5.73203 10.1348H5.69215C4.17318 10.1348 2.84151 11.0538 2.84151 12.1027C2.84151 13.2446 3.98285 14.137 5.43899 14.137C7.35976 14.137 8.33313 13.4736 8.33313 12.1685C8.33313 12.0453 8.31863 11.9172 8.28782 11.7885C8.15841 11.2841 7.69684 10.9686 6.99867 10.4913L6.99059 10.4858C6.93402 10.4482 6.87663 10.4088 6.81794 10.3685ZM5.91493 6.50529H5.91372H5.89983C4.93491 6.47508 3.9706 5.33494 3.7978 4.01536C3.70173 3.27762 3.85701 2.6142 4.22376 2.19549C4.46001 1.92481 4.77117 1.78101 5.1198 1.78101L5.15907 1.78221C6.14453 1.81061 7.0889 2.91026 7.2611 4.23106C7.35898 4.97 7.19403 5.66605 6.82184 6.0902C6.58439 6.36209 6.27806 6.50529 5.91493 6.50529Z" fill="#222222"/>
</svg>
