<svg width="18" height="19" viewBox="0 0 18 19" fill="none" xmlns="http://www.w3.org/2000/svg">
<path d="M4.25 18.2655H0.5V5.14049H4.25V18.2655ZM2.49123 4.33614C1.51998 4.33614 0.734379 3.54862 0.734379 2.57737C0.734379 1.60612 1.52189 0.818604 2.49123 0.818604C3.46249 0.820454 4.25 1.60797 4.25 2.57737C4.25 3.54862 3.46249 4.33614 2.49123 4.33614ZM17.375 18.2655H13.625V10.1505C13.625 9.19987 13.3531 8.53429 12.185 8.53429C10.2481 8.53429 9.87497 10.1505 9.87497 10.1505V18.2655H6.12497V5.14049H9.87497V6.39485C10.4112 5.98425 11.7499 5.14234 13.625 5.14234C14.84 5.14234 17.375 5.86984 17.375 10.2648V18.2655Z" fill="#222222"/>
</svg>
