<svg width="160" height="160" viewBox="0 0 160 160" fill="none" xmlns="http://www.w3.org/2000/svg">
<path opacity="0.05" fill-rule="evenodd" clip-rule="evenodd" d="M88.5981 145.356C87.401 145.356 86.258 145.116 85.4039 144.626L18.7727 106.396C16.8876 105.315 17.1238 103.426 19.301 102.177L22.7207 100.216L85.6751 136.335C85.6825 136.339 85.69 136.343 85.697 136.347C86.5833 136.849 87.7632 137.095 88.9986 137.095C90.5023 137.095 92.0883 136.731 93.3274 136.02L135.118 112.051L138.657 114.081C140.542 115.162 140.306 117.051 138.129 118.3L92.758 144.323C91.5679 145.006 90.0436 145.356 88.5981 145.356Z" fill="#000E4B"/>
<path fill-rule="evenodd" clip-rule="evenodd" d="M157.327 40.2058L87.9931 0.425863C87.188 -0.0360841 86.3698 -0.107046 85.6436 0.139697L85.6483 0.132276L85.5218 0.180048L85.4915 0.191179L82.9861 1.14429L85.2348 2.23794C85.224 2.27922 85.2114 2.31771 85.2026 2.35992L73.9089 53.445C73.3437 56.0015 74.4755 58.9865 76.4366 60.1112L144.103 98.9343L143.862 101.784L146.6 100.729C147.52 100.302 148.257 99.3346 148.561 97.9571L159.855 46.872C160.42 44.3155 159.288 41.3305 157.327 40.2058Z" fill="#0037A1"/>
<path fill-rule="evenodd" clip-rule="evenodd" d="M157.328 40.2058L87.9949 0.425863C87.1898 -0.0360841 86.3717 -0.107046 85.6455 0.139697L85.6501 0.132276L85.5236 0.180048L85.4933 0.191179L82.988 1.14429L85.2366 2.23794C85.2259 2.27922 85.2133 2.31771 85.2044 2.35992L77.7612 36.0283L111.685 62.293L159.518 42.9515C159.059 41.7674 158.295 40.76 157.328 40.2058Z" fill="#B4D0F6"/>
<path fill-rule="evenodd" clip-rule="evenodd" d="M154.712 48.058L159.991 45.8252C160.087 43.7938 159.241 41.6951 157.853 40.5731L149.498 44.0656L154.712 48.058Z" fill="#92B6E7"/>
<path fill-rule="evenodd" clip-rule="evenodd" d="M141.454 101.513L72.1201 61.7336C70.1585 60.6084 69.0267 57.6234 69.5919 55.0674L80.8856 3.98182C81.4503 1.42534 83.4987 0.264902 85.4599 1.39009L154.793 41.17C156.755 42.2952 157.887 45.2797 157.322 47.8367L146.028 98.9213C145.463 101.478 143.415 102.639 141.454 101.513Z" fill="#D7E8FE"/>
<path fill-rule="evenodd" clip-rule="evenodd" d="M155.46 40.9275L86.1256 1.14855C85.1758 0.60358 84.2083 0.604043 83.3962 1.03074C84.0482 0.888818 84.7581 0.987608 85.46 1.39065L154.794 41.1696C156.755 42.2948 157.887 45.2803 157.322 47.8368L146.029 98.9214C145.737 100.24 145.048 101.177 144.184 101.63C145.354 101.376 146.331 100.322 146.694 98.6797L157.987 47.5947C158.553 45.0377 157.421 42.0532 155.46 40.9275Z" fill="#FFFFFE"/>
<path fill-rule="evenodd" clip-rule="evenodd" d="M139.951 97.7131L74.7441 60.3199C72.9496 59.2898 71.9139 56.5585 72.4311 54.2191L82.7652 7.47195C83.2823 5.13253 85.1567 4.07088 86.9517 5.10052L152.158 42.4941C153.953 43.5238 154.989 46.2556 154.472 48.5945L144.137 95.3417C143.62 97.6811 141.746 98.7427 139.951 97.7131Z" fill="#FFFFFE"/>
<path fill-rule="evenodd" clip-rule="evenodd" d="M139.951 97.7131L74.7441 60.3199C72.9496 59.2898 71.9139 56.5585 72.4311 54.2191L82.7652 7.47195C83.2823 5.13253 85.1567 4.07088 86.9517 5.10052L152.158 42.4941C153.953 43.5238 154.989 46.2556 154.472 48.5945L144.137 95.3417C143.62 97.6811 141.746 98.7427 139.951 97.7131Z" fill="#000E4B"/>
<path fill-rule="evenodd" clip-rule="evenodd" d="M140.519 97.4835L75.3126 60.0899C73.5181 59.0603 72.4824 56.3285 72.9991 53.9895L83.3336 7.24191C83.5955 6.05828 84.2059 5.20581 84.9765 4.78143C83.9427 5.0458 83.0886 6.00865 82.7652 7.47195L72.4311 54.2186C71.9139 56.5585 72.9496 59.2898 74.7441 60.3199L139.951 97.7136C140.838 98.2219 141.742 98.2168 142.495 97.8026C141.875 97.9612 141.192 97.8694 140.519 97.4835Z" fill="#5589BB"/>
<path fill-rule="evenodd" clip-rule="evenodd" d="M142.411 103.245L132.933 102.002L71.7547 66.9013C69.7936 65.7757 66.3674 65.9171 64.1028 67.2167L20.7521 92.0793L15.0212 91.3275V94.5588L15.0263 94.5597C14.989 95.3064 15.417 96.0244 16.3425 96.5559L85.6756 136.335C87.6372 137.461 91.0629 137.319 93.3279 136.02L140.539 108.942C141.813 108.211 142.448 107.269 142.411 106.385V103.245Z" fill="#0037A1"/>
<path fill-rule="evenodd" clip-rule="evenodd" d="M96.4437 81.0658L92.0967 78.572H44.3097L20.7521 92.0793L15.0212 91.3275V94.5588L15.0263 94.5597C14.989 95.3064 15.417 96.0244 16.3425 96.5559L85.6756 136.335C86.7121 136.929 88.158 137.167 89.6249 137.07L96.4437 81.0658Z" fill="#B4D0F6"/>
<path fill-rule="evenodd" clip-rule="evenodd" d="M17.5644 91.6614L15.0212 91.3275V94.5588L15.0263 94.5597C14.989 95.3064 15.417 96.0244 16.3425 96.5559L17.5644 97.2562V91.6614Z" fill="#92B6E7"/>
<path fill-rule="evenodd" clip-rule="evenodd" d="M86.3739 136.658C88.2333 137.358 90.8913 137.205 92.8758 136.256V129.049H86.3739V136.658Z" fill="#92B6E7"/>
<path fill-rule="evenodd" clip-rule="evenodd" d="M85.6751 133.107L16.342 93.3283C14.3804 92.2027 14.6268 90.2375 16.8913 88.938L64.1024 61.8598C66.3669 60.5607 69.7931 60.4197 71.7542 61.5444L141.088 101.324C143.049 102.45 142.803 104.415 140.538 105.715L93.3274 132.792C91.0624 134.091 87.6367 134.233 85.6751 133.107Z" fill="#D7E8FE"/>
<path fill-rule="evenodd" clip-rule="evenodd" d="M140.539 104.534L93.3278 131.612C91.0629 132.911 87.6371 133.052 85.6755 131.927L16.3424 92.1479C15.6993 91.7792 15.2979 91.3191 15.1229 90.8223C14.8163 91.7444 15.2074 92.6766 16.3424 93.3283L85.6755 133.107C87.6371 134.233 91.0629 134.091 93.3278 132.792L140.539 105.715C142.061 104.841 142.667 103.668 142.307 102.649C142.084 103.321 141.493 103.987 140.539 104.534Z" fill="#FFFFFE"/>
<path fill-rule="evenodd" clip-rule="evenodd" d="M98.4254 98.7836L95.2886 96.9836C95.0366 96.8394 95.0679 96.587 95.3586 96.4201L98.467 94.6368C98.7582 94.4698 99.1979 94.4517 99.4499 94.5959L102.587 96.396C102.839 96.5402 102.807 96.793 102.516 96.9599L99.4079 98.7428C99.1171 98.9102 98.6775 98.9283 98.4254 98.7836Z" fill="#000E4B"/>
<path fill-rule="evenodd" clip-rule="evenodd" d="M103.27 101.563L100.132 99.7636C99.8803 99.6189 99.9116 99.3661 100.202 99.1996L103.311 97.4163C103.601 97.2493 104.042 97.2312 104.294 97.3755L107.431 99.1755C107.683 99.3202 107.651 99.5725 107.36 99.7395L104.252 101.523C103.961 101.69 103.521 101.708 103.27 101.563Z" fill="#000E4B"/>
<path fill-rule="evenodd" clip-rule="evenodd" d="M108.114 104.343L104.977 102.543C104.725 102.398 104.757 102.146 105.048 101.979L108.155 100.195C108.447 100.029 108.887 100.011 109.138 100.155L112.275 101.955C112.527 102.1 112.496 102.352 112.205 102.519L109.097 104.302C108.806 104.469 108.365 104.487 108.114 104.343Z" fill="#000E4B"/>
<path fill-rule="evenodd" clip-rule="evenodd" d="M112.96 107.122L109.823 105.322C109.571 105.178 109.603 104.926 109.893 104.758L113.002 102.975C113.293 102.808 113.733 102.79 113.985 102.935L117.121 104.734C117.373 104.879 117.342 105.132 117.051 105.298L113.943 107.082C113.652 107.248 113.211 107.267 112.96 107.122Z" fill="#000E4B"/>
<path fill-rule="evenodd" clip-rule="evenodd" d="M121.573 112.064L114.728 108.136C114.476 107.992 114.508 107.74 114.799 107.573L117.907 105.789C118.198 105.622 118.637 105.604 118.889 105.749L125.734 109.676C125.986 109.82 125.955 110.073 125.664 110.24L122.556 112.023C122.265 112.19 121.825 112.208 121.573 112.064Z" fill="#000E4B"/>
<path fill-rule="evenodd" clip-rule="evenodd" d="M131.003 106.652L125.226 103.338C124.974 103.193 125.006 102.941 125.296 102.774L128.405 100.99C128.696 100.823 129.135 100.805 129.387 100.95L135.164 104.265C135.416 104.409 135.385 104.661 135.094 104.829L131.986 106.612C131.695 106.779 131.255 106.797 131.003 106.652Z" fill="#000E4B"/>
<path fill-rule="evenodd" clip-rule="evenodd" d="M82.6869 84.3422L79.5496 82.5422C79.2975 82.3975 79.3293 82.1452 79.62 81.9786L82.7284 80.1949C83.0192 80.0284 83.4593 80.0103 83.7108 80.1545L86.8481 81.9545C87.1002 82.0992 87.0684 82.3515 86.7777 82.5185L83.6693 84.3018C83.3781 84.4683 82.9384 84.4864 82.6869 84.3422Z" fill="#000E4B"/>
<path fill-rule="evenodd" clip-rule="evenodd" d="M77.7208 81.4936L74.584 79.6935C74.3324 79.5493 74.3637 79.297 74.6545 79.1296L77.7628 77.3467C78.0536 77.1797 78.4937 77.1612 78.7457 77.3064L81.8825 79.1059C82.1341 79.2501 82.1028 79.5029 81.8121 79.6694L78.7037 81.4532C78.4129 81.6202 77.9728 81.6383 77.7208 81.4936Z" fill="#000E4B"/>
<path fill-rule="evenodd" clip-rule="evenodd" d="M72.7547 78.6444L69.6179 76.8453C69.3658 76.7006 69.3971 76.4478 69.6879 76.2813L72.7962 74.498C73.0874 74.331 73.5276 74.3129 73.7791 74.4571L76.9164 76.2572C77.1684 76.4019 77.1362 76.6537 76.8455 76.8211L73.7371 78.6045C73.4464 78.7714 73.0067 78.7895 72.7547 78.6444Z" fill="#000E4B"/>
<path fill-rule="evenodd" clip-rule="evenodd" d="M67.7916 75.7962L64.6543 73.9962C64.4023 73.8515 64.4345 73.5996 64.7252 73.4327L67.8336 71.6489C68.1243 71.4824 68.564 71.4643 68.816 71.609L71.9528 73.4086C72.2049 73.5533 72.1736 73.8056 71.8828 73.9721L68.774 75.7559C68.4832 75.9224 68.0431 75.9405 67.7916 75.7962Z" fill="#000E4B"/>
<path fill-rule="evenodd" clip-rule="evenodd" d="M87.5306 87.1218L84.3933 85.3218C84.1412 85.1771 84.173 84.9248 84.4642 84.7578L87.5721 82.9745C87.8633 82.808 88.303 82.7899 88.5546 82.9341L91.6919 84.7341C91.9439 84.8788 91.9126 85.1311 91.6214 85.2976L88.513 87.0814C88.2223 87.2479 87.7821 87.266 87.5306 87.1218Z" fill="#000E4B"/>
<path fill-rule="evenodd" clip-rule="evenodd" d="M92.3755 89.9014L89.2382 88.1014C88.9862 87.9571 89.0179 87.7048 89.3087 87.5374L92.4175 85.7545C92.7083 85.5871 93.1479 85.569 93.3999 85.7137L96.5367 87.5137C96.7888 87.658 96.757 87.9107 96.4663 88.0772L93.3579 89.8606C93.0672 90.0275 92.627 90.0461 92.3755 89.9014Z" fill="#000E4B"/>
<path fill-rule="evenodd" clip-rule="evenodd" d="M97.2213 92.6809L94.084 90.8809C93.8324 90.7366 93.8637 90.4838 94.1545 90.3169L97.2628 88.534C97.554 88.3666 97.9937 88.3485 98.2457 88.4932L101.383 90.2932C101.635 90.4375 101.603 90.6898 101.312 90.8572L98.2037 92.6401C97.9129 92.8075 97.4733 92.8256 97.2213 92.6809Z" fill="#000E4B"/>
<path fill-rule="evenodd" clip-rule="evenodd" d="M102.065 95.46L98.9277 93.6599C98.6762 93.5157 98.7074 93.2634 98.9982 93.0969L102.107 91.3131C102.397 91.1466 102.837 91.128 103.089 91.2727L106.226 93.0728C106.478 93.217 106.447 93.4693 106.156 93.6367L103.047 95.4196C102.757 95.5866 102.317 95.6047 102.065 95.46Z" fill="#000E4B"/>
<path fill-rule="evenodd" clip-rule="evenodd" d="M50.6753 82.9383L47.538 81.1382C47.2865 80.994 47.3182 80.7417 47.609 80.5747L51.3115 78.4505C51.6022 78.2831 52.0428 78.265 52.2944 78.4097L55.4317 80.2092C55.6837 80.354 55.6515 80.6067 55.3607 80.7732L51.6582 82.8974C51.3675 83.0649 50.9273 83.083 50.6753 82.9383Z" fill="#000E4B"/>
<path fill-rule="evenodd" clip-rule="evenodd" d="M55.519 85.7179L52.3822 83.9183C52.1301 83.7736 52.1619 83.5208 52.4526 83.3543L56.1551 81.2301C56.4464 81.0627 56.8865 81.0446 57.138 81.1893L60.2749 82.9893C60.5269 83.1336 60.4956 83.3859 60.2049 83.5528L56.5014 85.6775C56.2107 85.8445 55.771 85.8626 55.519 85.7179Z" fill="#000E4B"/>
<path fill-rule="evenodd" clip-rule="evenodd" d="M62.2197 83.4225L59.0829 81.6225C58.8313 81.4782 58.8626 81.2255 59.1533 81.059L62.2617 79.2756C62.5525 79.1082 62.9926 79.0901 63.2446 79.2348L66.3814 81.0348C66.633 81.1791 66.6017 81.4314 66.311 81.5988L63.2026 83.3817C62.9118 83.5491 62.4717 83.5672 62.2197 83.4225Z" fill="#000E4B"/>
<path fill-rule="evenodd" clip-rule="evenodd" d="M67.0634 86.2016L63.9266 84.4025C63.6751 84.2578 63.7063 84.005 63.9971 83.8385L67.1054 82.0547C67.3962 81.8882 67.8363 81.8701 68.0884 82.0144L71.2252 83.8144C71.4767 83.9586 71.4455 84.2109 71.1547 84.3784L68.0464 86.1617C67.7556 86.3282 67.3155 86.3463 67.0634 86.2016Z" fill="#000E4B"/>
<path fill-rule="evenodd" clip-rule="evenodd" d="M71.9085 88.9817L68.7717 87.1816C68.5196 87.0369 68.5514 86.7846 68.8422 86.6181L71.9505 84.8343C72.2413 84.6678 72.6809 84.6497 72.9334 84.794L76.0702 86.594C76.3223 86.7387 76.2905 86.991 75.9998 87.1575L72.8914 88.9413C72.6006 89.1078 72.1605 89.1259 71.9085 88.9817Z" fill="#000E4B"/>
<path fill-rule="evenodd" clip-rule="evenodd" d="M76.7527 91.7612L73.6154 89.9612C73.3634 89.8165 73.3951 89.5641 73.6859 89.3972L76.7943 87.6138C77.085 87.4469 77.5251 87.4288 77.7767 87.5735L80.914 89.3731C81.166 89.5178 81.1343 89.7705 80.8435 89.937L77.7356 91.7204C77.4444 91.8873 77.0043 91.9054 76.7527 91.7612Z" fill="#000E4B"/>
<path fill-rule="evenodd" clip-rule="evenodd" d="M81.5985 94.5407L78.4612 92.7407C78.2092 92.5965 78.2414 92.3437 78.5321 92.1767L81.64 90.3939C81.9308 90.2264 82.3709 90.2084 82.6225 90.3531L85.7598 92.1526C86.0118 92.2973 85.9805 92.5496 85.6893 92.7166L82.5809 94.4999C82.2902 94.6669 81.8501 94.685 81.5985 94.5407Z" fill="#000E4B"/>
<path fill-rule="evenodd" clip-rule="evenodd" d="M86.4424 97.3198L83.3051 95.5202C83.0531 95.3755 83.0848 95.1232 83.3761 94.9563L86.4844 93.1729C86.7752 93.006 87.2148 92.9879 87.4668 93.1326L90.6037 94.9326C90.8557 95.0768 90.824 95.3291 90.5332 95.4961L87.4248 97.2794C87.1341 97.4464 86.694 97.4645 86.4424 97.3198Z" fill="#000E4B"/>
<path fill-rule="evenodd" clip-rule="evenodd" d="M91.286 100.099L88.1487 98.2994C87.8972 98.1551 87.9284 97.9028 88.2192 97.7363L91.328 95.9525C91.6188 95.7856 92.0584 95.7675 92.3105 95.9122L95.4477 97.7122C95.6993 97.8564 95.6676 98.1087 95.3768 98.2757L92.2684 100.059C91.9777 100.226 91.538 100.244 91.286 100.099Z" fill="#000E4B"/>
<path fill-rule="evenodd" clip-rule="evenodd" d="M96.132 102.879L92.9947 101.079C92.7431 100.935 92.7744 100.682 93.0652 100.515L96.1735 98.7321C96.4643 98.5652 96.9044 98.5471 97.1564 98.6918L100.294 100.491C100.545 100.636 100.514 100.888 100.223 101.055L97.1144 102.839C96.8237 103.006 96.384 103.024 96.132 102.879Z" fill="#000E4B"/>
<path fill-rule="evenodd" clip-rule="evenodd" d="M100.976 105.659L97.8396 103.859C97.588 103.714 97.6193 103.462 97.91 103.295L101.018 101.512C101.309 101.345 101.749 101.327 102.001 101.471L105.138 103.271C105.39 103.416 105.358 103.668 105.068 103.835L101.959 105.618C101.669 105.785 101.229 105.803 100.976 105.659Z" fill="#000E4B"/>
<path fill-rule="evenodd" clip-rule="evenodd" d="M105.82 108.438L102.684 106.638C102.432 106.493 102.463 106.241 102.754 106.074L105.862 104.291C106.153 104.124 106.593 104.106 106.845 104.25L109.982 106.05C110.234 106.195 110.202 106.447 109.911 106.614L106.803 108.398C106.512 108.564 106.072 108.582 105.82 108.438Z" fill="#000E4B"/>
<path fill-rule="evenodd" clip-rule="evenodd" d="M69.3558 82.1061L66.2194 80.3061C65.9674 80.1619 65.9987 79.9096 66.2894 79.7431L69.3978 77.9593C69.6885 77.7928 70.1291 77.7742 70.3807 77.9189L73.5175 79.7189C73.7695 79.8632 73.7378 80.1155 73.447 80.2829L70.3387 82.0658C70.0479 82.2328 69.6078 82.2508 69.3558 82.1061Z" fill="#000E4B"/>
<path fill-rule="evenodd" clip-rule="evenodd" d="M64.4412 79.2853L61.3044 77.4853C61.0519 77.3411 61.0836 77.0888 61.3749 76.9218L64.4827 75.1385C64.7735 74.972 65.2136 74.9534 65.4657 75.0981L68.6025 76.8977C68.8545 77.0419 68.8232 77.2947 68.532 77.4617L65.4241 79.245C65.1334 79.412 64.6928 79.43 64.4412 79.2853Z" fill="#000E4B"/>
<path fill-rule="evenodd" clip-rule="evenodd" d="M59.5166 76.4598L52.7603 72.5834C52.5088 72.4391 52.54 72.1863 52.8308 72.0194L55.9392 70.2365C56.2299 70.0691 56.67 70.051 56.9221 70.1957L63.6783 74.0722C63.9303 74.2169 63.8986 74.4692 63.6078 74.6362L60.4995 76.4195C60.2087 76.586 59.7691 76.6041 59.5166 76.4598Z" fill="#000E4B"/>
<path fill-rule="evenodd" clip-rule="evenodd" d="M62.9585 73.0236L57.4755 69.8776C57.224 69.7334 57.2557 69.4811 57.5465 69.3136L60.6548 67.5308C60.9456 67.3638 61.3852 67.3457 61.6373 67.4904L67.1203 70.6359C67.3718 70.7802 67.3406 71.0325 67.0498 71.1999L63.9415 72.9828C63.6507 73.1502 63.2106 73.1683 62.9585 73.0236Z" fill="#000E4B"/>
<path fill-rule="evenodd" clip-rule="evenodd" d="M74.2033 84.8861L71.0665 83.0861C70.8145 82.9414 70.8457 82.6891 71.137 82.5221L74.2448 80.7388C74.5356 80.5723 74.9762 80.5542 75.2278 80.6985L78.3646 82.498C78.6166 82.6432 78.5849 82.8955 78.2941 83.062L75.1862 84.8458C74.8954 85.0123 74.4549 85.0304 74.2033 84.8861Z" fill="#000E4B"/>
<path fill-rule="evenodd" clip-rule="evenodd" d="M79.0483 87.6658L75.911 85.8658C75.659 85.7211 75.6912 85.4688 75.9819 85.3018L79.0898 83.5185C79.381 83.3515 79.8207 83.3334 80.0723 83.4777L83.2095 85.2777C83.4616 85.4224 83.4303 85.6751 83.1395 85.8416L80.0312 87.625C79.7404 87.7919 79.2998 87.81 79.0483 87.6658Z" fill="#000E4B"/>
<path fill-rule="evenodd" clip-rule="evenodd" d="M83.892 90.4454L80.7547 88.6454C80.5027 88.5007 80.5349 88.2484 80.8257 88.0814L83.934 86.2981C84.2248 86.1311 84.6645 86.1131 84.9165 86.2578L88.0533 88.0573C88.3053 88.202 88.2741 88.4543 87.9833 88.6213L84.8745 90.4046C84.5837 90.5716 84.1441 90.5897 83.892 90.4454Z" fill="#000E4B"/>
<path fill-rule="evenodd" clip-rule="evenodd" d="M88.7367 93.2244L85.5994 91.4244C85.3478 91.2801 85.3796 91.0278 85.6704 90.8609L88.7787 89.0775C89.0695 88.9106 89.5091 88.8925 89.7611 89.0372L92.8984 90.8372C93.15 90.9814 93.1187 91.2338 92.828 91.4003L89.7191 93.184C89.4284 93.3506 88.9887 93.3691 88.7367 93.2244Z" fill="#000E4B"/>
<path fill-rule="evenodd" clip-rule="evenodd" d="M93.5807 96.0041L90.4434 94.204C90.1918 94.0598 90.2231 93.8075 90.5138 93.6405L93.6227 91.8572C93.9134 91.6902 94.3531 91.6721 94.6051 91.8168L97.7424 93.6164C97.994 93.7611 97.9622 94.0134 97.6715 94.1804L94.5631 95.9637C94.2723 96.1307 93.8327 96.1488 93.5807 96.0041Z" fill="#000E4B"/>
<path fill-rule="evenodd" clip-rule="evenodd" d="M45.8304 80.1587L42.6936 78.3586C42.4415 78.2144 42.4733 77.9621 42.764 77.7951L46.467 75.6704C46.7577 75.5039 47.1979 75.4859 47.4494 75.6301L50.5867 77.4297C50.8387 77.5748 50.8065 77.8271 50.5158 77.9936L46.8133 80.1183C46.5225 80.2853 46.0824 80.3034 45.8304 80.1587Z" fill="#000E4B"/>
<path fill-rule="evenodd" clip-rule="evenodd" d="M106.908 98.2396L103.771 96.44C103.52 96.2953 103.551 96.043 103.842 95.876L106.95 94.0927C107.241 93.9262 107.681 93.9081 107.933 94.0523L111.07 95.8519C111.322 95.9971 111.29 96.2494 111 96.4159L107.891 98.1997C107.6 98.3662 107.16 98.3843 106.908 98.2396Z" fill="#000E4B"/>
<path fill-rule="evenodd" clip-rule="evenodd" d="M111.753 101.02L108.617 99.2195C108.365 99.0748 108.396 98.8225 108.687 98.6555L111.795 96.8722C112.086 96.7053 112.526 96.6872 112.778 96.8314L115.915 98.6314C116.167 98.7761 116.135 99.0289 115.844 99.1954L112.736 100.979C112.445 101.146 112.005 101.164 111.753 101.02Z" fill="#000E4B"/>
<path fill-rule="evenodd" clip-rule="evenodd" d="M116.6 103.799L113.462 101.999C113.21 101.854 113.242 101.602 113.533 101.435L116.641 99.6518C116.932 99.4848 117.372 99.4668 117.624 99.6115L120.761 101.411C121.013 101.556 120.982 101.808 120.691 101.975L117.583 103.758C117.292 103.925 116.851 103.943 116.6 103.799Z" fill="#000E4B"/>
<path fill-rule="evenodd" clip-rule="evenodd" d="M121.443 106.578L118.306 104.778C118.054 104.634 118.086 104.382 118.377 104.215L121.485 102.431C121.776 102.264 122.216 102.246 122.468 102.391L125.605 104.191C125.857 104.335 125.825 104.588 125.535 104.755L122.426 106.538C122.135 106.704 121.695 106.723 121.443 106.578Z" fill="#000E4B"/>
<path fill-rule="evenodd" clip-rule="evenodd" d="M126.287 109.358L123.15 107.558C122.898 107.413 122.93 107.161 123.221 106.994L126.329 105.211C126.62 105.044 127.06 105.026 127.312 105.171L130.449 106.97C130.7 107.115 130.669 107.367 130.378 107.534L127.27 109.317C126.979 109.484 126.539 109.502 126.287 109.358Z" fill="#000E4B"/>
<path fill-rule="evenodd" clip-rule="evenodd" d="M80.1355 77.4667L76.9982 75.6676C76.7462 75.5229 76.7779 75.2702 77.0691 75.1037L80.177 73.3199C80.4678 73.1534 80.9079 73.1353 81.1595 73.2795L84.2968 75.0795C84.5488 75.2238 84.5175 75.4761 84.2263 75.6435L81.1184 77.4264C80.8276 77.5933 80.3871 77.6119 80.1355 77.4667Z" fill="#000E4B"/>
<path fill-rule="evenodd" clip-rule="evenodd" d="M75.3148 74.7016L72.1779 72.9015C71.9259 72.7568 71.9576 72.5045 72.2484 72.338L75.3568 70.5542C75.6475 70.3877 76.0872 70.3696 76.3392 70.5139L79.4765 72.3139C79.7285 72.4586 79.6968 72.7109 79.406 72.8774L76.2977 74.6612C76.0064 74.8277 75.5668 74.8458 75.3148 74.7016Z" fill="#000E4B"/>
<path fill-rule="evenodd" clip-rule="evenodd" d="M70.4945 71.9359L67.3572 70.1359C67.1057 69.9912 67.1374 69.7389 67.4282 69.5719L70.5365 67.7886C70.8273 67.6221 71.2669 67.604 71.519 67.7483L74.6562 69.5478C74.9078 69.693 74.8765 69.9453 74.5858 70.1118L71.477 71.8956C71.1862 72.0621 70.7465 72.0802 70.4945 71.9359Z" fill="#000E4B"/>
<path fill-rule="evenodd" clip-rule="evenodd" d="M65.6735 69.1703L62.5362 67.3703C62.2842 67.2256 62.3159 66.9733 62.6067 66.8063L65.7155 65.023C66.0063 64.856 66.4459 64.8379 66.6979 64.9822L69.8348 66.7822C70.0868 66.9269 70.055 67.1797 69.7643 67.3462L66.6559 69.1295C66.3652 69.2965 65.925 69.3145 65.6735 69.1703Z" fill="#000E4B"/>
<path fill-rule="evenodd" clip-rule="evenodd" d="M70.6317 66.3262L67.4949 64.5262C67.2429 64.382 67.2746 64.1296 67.5654 63.9622L68.5931 63.3732C68.8839 63.2057 69.3235 63.1877 69.5755 63.3324L72.7128 65.1324C72.9644 65.2766 72.9331 65.5289 72.6423 65.6964L71.6142 66.2854C71.3234 66.4524 70.8837 66.4705 70.6317 66.3262Z" fill="#000E4B"/>
<path fill-rule="evenodd" clip-rule="evenodd" d="M76.9216 69.9351L73.7853 68.1355C73.5332 67.9913 73.5645 67.7385 73.8553 67.5715L74.883 66.982C75.1738 66.8155 75.6139 66.7974 75.8659 66.9417L79.0027 68.7417C79.2543 68.8859 79.223 69.1383 78.9323 69.3052L77.9045 69.8947C77.6138 70.0617 77.1737 70.0798 76.9216 69.9351Z" fill="#000E4B"/>
<path fill-rule="evenodd" clip-rule="evenodd" d="M81.7216 72.6896L78.5843 70.8896C78.3323 70.7449 78.3636 70.4926 78.6548 70.3261L79.6821 69.7361C79.9728 69.5696 80.4129 69.5515 80.665 69.6962L83.8023 71.4953C84.0543 71.64 84.0221 71.8928 83.7313 72.0593L82.7041 72.6493C82.4133 72.8158 81.9732 72.8338 81.7216 72.6896Z" fill="#000E4B"/>
<path fill-rule="evenodd" clip-rule="evenodd" d="M86.5228 75.4437L83.3855 73.6436C83.1335 73.4994 83.1652 73.2471 83.456 73.0797L84.4837 72.4906C84.7745 72.3237 85.2146 72.3056 85.4661 72.4498L88.6034 74.2498C88.8555 74.3941 88.8232 74.6469 88.5325 74.8138L87.5052 75.4033C87.2145 75.5703 86.7744 75.5884 86.5228 75.4437Z" fill="#000E4B"/>
<path fill-rule="evenodd" clip-rule="evenodd" d="M91.3226 78.1981L88.1853 76.3981C87.9338 76.2534 87.9655 76.0011 88.2563 75.8341L89.2835 75.2442C89.5748 75.0777 90.0144 75.0596 90.2665 75.2043L93.4033 77.0038C93.6553 77.1485 93.624 77.4008 93.3328 77.5678L92.3051 78.1573C92.0143 78.3243 91.5747 78.3424 91.3226 78.1981Z" fill="#000E4B"/>
<path fill-rule="evenodd" clip-rule="evenodd" d="M118.123 93.5741L114.986 91.7741C114.734 91.6299 114.766 91.3776 115.056 91.2101L116.084 90.6206C116.375 90.4537 116.815 90.4356 117.067 90.5803L120.204 92.3803C120.456 92.5245 120.424 92.7768 120.133 92.9443L119.106 93.5333C118.815 93.7003 118.375 93.7184 118.123 93.5741Z" fill="#000E4B"/>
<path fill-rule="evenodd" clip-rule="evenodd" d="M122.923 96.3277L119.786 94.5286C119.534 94.3839 119.566 94.1311 119.857 93.9646L120.884 93.3747C121.175 93.2082 121.615 93.1901 121.867 93.3343L125.004 95.1343C125.256 95.2791 125.225 95.5314 124.933 95.6979L123.906 96.2878C123.615 96.4548 123.175 96.4729 122.923 96.3277Z" fill="#000E4B"/>
<path fill-rule="evenodd" clip-rule="evenodd" d="M127.722 99.0822L124.585 97.2822C124.333 97.1379 124.365 96.8856 124.656 96.7187L125.684 96.1292C125.974 95.9622 126.414 95.9441 126.666 96.0888L129.803 97.8884C130.055 98.0331 130.024 98.2854 129.733 98.4524L128.705 99.0418C128.414 99.2084 127.974 99.2264 127.722 99.0822Z" fill="#000E4B"/>
<path fill-rule="evenodd" clip-rule="evenodd" d="M132.523 101.836L129.387 100.037C129.135 99.892 129.166 99.6397 129.457 99.4728L130.485 98.8833C130.776 98.7163 131.215 98.6982 131.468 98.8425L134.604 100.642C134.856 100.787 134.825 101.04 134.534 101.206L133.506 101.796C133.216 101.963 132.775 101.981 132.523 101.836Z" fill="#000E4B"/>
<path fill-rule="evenodd" clip-rule="evenodd" d="M84.9791 80.2469L81.8418 78.4468C81.5898 78.3021 81.622 78.0498 81.9127 77.8833L85.0206 76.0995C85.3118 75.933 85.7515 75.9149 86.0035 76.0592L89.1403 77.8592C89.3924 78.0039 89.3611 78.2562 89.0703 78.4227L85.962 80.2065C85.6708 80.373 85.2306 80.3911 84.9791 80.2469Z" fill="#000E4B"/>
<path fill-rule="evenodd" clip-rule="evenodd" d="M89.825 83.0263L86.6878 81.2263C86.4357 81.0815 86.4679 80.8292 86.7587 80.6623L89.8671 78.8789C90.1578 78.7124 90.5975 78.6944 90.8495 78.8386L93.9868 80.6382C94.2383 80.7829 94.2071 81.0356 93.9163 81.2021L90.8075 82.9859C90.5167 83.1524 90.0771 83.1705 89.825 83.0263Z" fill="#000E4B"/>
<path fill-rule="evenodd" clip-rule="evenodd" d="M94.6688 85.8059L91.5315 84.0059C91.28 83.8616 91.3112 83.6093 91.602 83.4419L94.7108 81.6586C95.0016 81.4916 95.4412 81.4735 95.6933 81.6182L98.8306 83.4178C99.0821 83.5625 99.0504 83.8153 98.7596 83.9818L95.6513 85.7651C95.3605 85.9321 94.9208 85.9501 94.6688 85.8059Z" fill="#000E4B"/>
<path fill-rule="evenodd" clip-rule="evenodd" d="M99.5126 88.585L96.3753 86.7855C96.1237 86.6413 96.155 86.3885 96.4457 86.2215L99.5546 84.4382C99.8453 84.2712 100.285 84.2531 100.537 84.3978L103.674 86.1979C103.926 86.3421 103.894 86.5944 103.603 86.7614L100.495 88.5447C100.204 88.7117 99.7646 88.7298 99.5126 88.585Z" fill="#000E4B"/>
<path fill-rule="evenodd" clip-rule="evenodd" d="M104.358 91.3646L101.222 89.5646C100.97 89.4203 101.001 89.168 101.292 89.0015L104.4 87.2177C104.691 87.0508 105.131 87.0327 105.383 87.1774L108.52 88.9774C108.772 89.1216 108.74 89.374 108.449 89.5409L105.341 91.3242C105.05 91.4912 104.611 91.5093 104.358 91.3646Z" fill="#000E4B"/>
<path fill-rule="evenodd" clip-rule="evenodd" d="M109.203 94.1442L106.066 92.3446C105.814 92.1999 105.846 91.9476 106.137 91.7806L109.245 89.9973C109.536 89.8308 109.976 89.8127 110.228 89.9569L113.365 91.7565C113.617 91.9012 113.585 92.1535 113.294 92.3205L110.186 94.1043C109.895 94.2708 109.455 94.2889 109.203 94.1442Z" fill="#000E4B"/>
<path fill-rule="evenodd" clip-rule="evenodd" d="M114.048 96.9242L110.911 95.1242C110.659 94.9795 110.691 94.7267 110.982 94.5602L114.09 92.7769C114.381 92.6099 114.821 92.5918 115.072 92.7361L118.209 94.5361C118.461 94.6808 118.43 94.9331 118.139 95.1001L115.031 96.8834C114.74 97.0504 114.3 97.0685 114.048 96.9242Z" fill="#000E4B"/>
<path fill-rule="evenodd" clip-rule="evenodd" d="M118.892 99.7033L115.755 97.9038C115.503 97.7591 115.535 97.5063 115.826 97.3398L118.934 95.556C119.225 95.3895 119.664 95.3714 119.917 95.5157L123.053 97.3157C123.305 97.4604 123.274 97.7127 122.983 97.8797L119.875 99.663C119.584 99.8295 119.144 99.8476 118.892 99.7033Z" fill="#000E4B"/>
<path fill-rule="evenodd" clip-rule="evenodd" d="M123.737 102.483L120.599 100.683C120.348 100.539 120.38 100.286 120.67 100.119L123.779 98.336C124.069 98.169 124.509 98.151 124.761 98.2957L127.898 100.095C128.15 100.24 128.119 100.492 127.828 100.659L124.72 102.443C124.428 102.609 123.989 102.627 123.737 102.483Z" fill="#000E4B"/>
<path fill-rule="evenodd" clip-rule="evenodd" d="M57.2827 80.59L48.044 75.2892C47.792 75.145 47.8237 74.8922 48.1145 74.7252L51.2228 72.9419C51.5136 72.7749 51.9532 72.7569 52.2053 72.9016L61.4444 78.2019C61.696 78.3466 61.6647 78.5994 61.374 78.7659L58.2656 80.5492C57.9749 80.7162 57.5347 80.7343 57.2827 80.59Z" fill="#000E4B"/>
<path fill-rule="evenodd" clip-rule="evenodd" d="M116.8 114.737L107.561 109.436C107.309 109.292 107.34 109.04 107.631 108.872L110.739 107.089C111.03 106.922 111.47 106.904 111.722 107.048L120.961 112.349C121.213 112.494 121.181 112.746 120.891 112.913L117.782 114.697C117.491 114.863 117.052 114.881 116.8 114.737Z" fill="#000E4B"/>
<path fill-rule="evenodd" clip-rule="evenodd" d="M97.4252 109.761L94.2884 107.961C94.0364 107.817 94.0681 107.564 94.3589 107.397L98.0618 105.273C98.3526 105.106 98.7927 105.088 99.0448 105.233L102.182 107.032C102.434 107.177 102.402 107.429 102.111 107.596L98.4082 109.721C98.1169 109.888 97.6773 109.906 97.4252 109.761Z" fill="#000E4B"/>
<path fill-rule="evenodd" clip-rule="evenodd" d="M62.2427 89.5762L57.2259 86.6979C56.9739 86.5527 57.0056 86.3004 57.2964 86.1339L60.9993 84.0092C61.2901 83.8427 61.7302 83.8241 61.9823 83.9688L66.999 86.8472C67.2511 86.9919 67.2193 87.2442 66.9281 87.4112L63.2256 89.5354C62.9348 89.7024 62.4947 89.7205 62.2427 89.5762Z" fill="#000E4B"/>
<path fill-rule="evenodd" clip-rule="evenodd" d="M92.7574 107.083L87.7406 104.204C87.4886 104.06 87.5199 103.807 87.8106 103.64L91.5136 101.516C91.8048 101.349 92.2445 101.331 92.4965 101.475L97.5137 104.354C97.7658 104.499 97.7336 104.751 97.4428 104.918L93.7403 107.042C93.4495 107.209 93.0094 107.227 92.7574 107.083Z" fill="#000E4B"/>
<path fill-rule="evenodd" clip-rule="evenodd" d="M69.234 93.5861L64.2168 90.7077C63.9652 90.563 63.9965 90.3107 64.2873 90.1438L67.9902 88.0191C68.281 87.8526 68.7211 87.8345 68.9727 87.9787L73.9899 90.8576C74.2415 91.0018 74.2102 91.2546 73.9194 91.4211L70.2165 93.5453C69.9257 93.7127 69.4856 93.7308 69.234 93.5861Z" fill="#000E4B"/>
<path fill-rule="evenodd" clip-rule="evenodd" d="M69.007 87.9984L90.8201 100.514C91.0903 100.669 91.0903 100.92 90.8201 101.076L87.0438 103.242C86.7731 103.398 86.334 103.398 86.0637 103.242L64.2511 90.7274L69.007 87.9984Z" fill="#000E4B"/>
<path fill-rule="evenodd" clip-rule="evenodd" d="M110.966 114.801L114.46 116.806C114.667 116.924 114.641 117.131 114.402 117.267L112.888 118.137C112.649 118.273 112.289 118.288 112.082 118.17L108.588 116.165C108.382 116.046 108.407 115.84 108.646 115.703L110.16 114.834C110.399 114.697 110.759 114.682 110.966 114.801Z" fill="#000E4B"/>
<path fill-rule="evenodd" clip-rule="evenodd" d="M106.08 111.998L109.574 114.003C109.781 114.122 109.755 114.328 109.517 114.465L108.002 115.334C107.763 115.471 107.403 115.486 107.196 115.367L103.702 113.362C103.495 113.244 103.522 113.037 103.76 112.9L105.275 112.031C105.513 111.894 105.874 111.88 106.08 111.998Z" fill="#000E4B"/>
<path fill-rule="evenodd" clip-rule="evenodd" d="M101.236 109.218L104.731 111.224C104.937 111.342 104.911 111.549 104.673 111.686L103.158 112.555C102.92 112.692 102.559 112.706 102.353 112.588L98.8579 110.583C98.6516 110.464 98.6778 110.258 98.9158 110.121L100.431 109.252C100.669 109.115 101.03 109.1 101.236 109.218Z" fill="#000E4B"/>
<path fill-rule="evenodd" clip-rule="evenodd" d="M108.756 110.463L112.251 112.468C112.457 112.586 112.431 112.793 112.193 112.93L110.678 113.799C110.44 113.935 110.079 113.951 109.873 113.832L106.378 111.827C106.172 111.709 106.198 111.502 106.436 111.365L107.951 110.496C108.189 110.359 108.55 110.345 108.756 110.463Z" fill="#000E4B"/>
<path fill-rule="evenodd" clip-rule="evenodd" d="M67.2482 115.53L45.6167 103.119C44.9875 102.757 45.0664 102.126 45.7931 101.709L58.8472 94.2197C59.5744 93.8023 60.674 93.7568 61.3041 94.1186L82.9351 106.53C83.5647 106.891 83.4858 107.522 82.7587 107.939L69.705 115.428C68.9779 115.845 67.8783 115.891 67.2482 115.53Z" fill="#FFFFFE"/>
<mask id="mask0_299_383" style="mask-type:alpha" maskUnits="userSpaceOnUse" x="96" y="8" width="54" height="83">
<path fill-rule="evenodd" clip-rule="evenodd" d="M125.988 85.5068L136.6 42.4562L96.5033 18.8384L119.647 8.23865L149.418 19.6468C149.418 19.6468 149.598 71.7778 149.418 72.3028C149.237 72.8273 138.39 90.3178 138.39 90.3178L125.988 85.5068Z" fill="white"/>
</mask>
<g mask="url(#mask0_299_383)">
<path fill-rule="evenodd" clip-rule="evenodd" d="M112.982 26.2917C112.899 26.1744 112.774 26.064 112.607 25.9684L107.468 23.0196C107.133 22.828 106.696 22.7329 106.259 22.7329C105.876 22.7329 105.491 22.8058 105.176 22.9509L104.318 23.4412L104.008 23.2589L105.132 22.6142C105.468 22.4213 105.91 22.3253 106.351 22.3253C106.792 22.3253 107.234 22.4213 107.569 22.6142L112.71 25.5631C112.942 25.6962 113.091 25.8585 113.163 26.0292C113.288 25.7337 113.174 25.4114 112.818 25.1656C113.283 25.487 113.338 25.9397 112.982 26.2917ZM112.816 25.1637C112.815 25.1627 112.814 25.1623 112.813 25.1618C112.814 25.1623 112.815 25.1627 112.816 25.1637ZM112.807 25.1577C112.807 25.1577 112.807 25.1572 112.806 25.1572C112.806 25.1572 112.807 25.1577 112.807 25.1577ZM112.801 25.153C112.801 25.153 112.801 25.153 112.801 25.1525C112.801 25.153 112.801 25.153 112.801 25.153ZM112.719 25.102C112.718 25.1016 112.718 25.1016 112.718 25.1016C112.718 25.1016 112.718 25.1016 112.719 25.102Z" fill="#2D4F80"/>
<path fill-rule="evenodd" clip-rule="evenodd" d="M113.782 29.0155L112.95 28.5261L114.194 27.8128C115.04 27.3272 115.404 26.6686 115.289 26.0337C115.302 25.9641 115.309 25.8945 115.311 25.825V28.1384C115.305 28.1416 115.299 28.1444 115.294 28.1477L113.782 29.0155ZM112.55 28.2897L114.194 27.3468C114.196 27.3449 114.199 27.3435 114.202 27.3417C114.199 27.3435 114.196 27.3449 114.194 27.3468L112.55 28.2897ZM114.203 27.3412C114.205 27.3398 114.208 27.3384 114.21 27.337C114.208 27.3384 114.206 27.3398 114.203 27.3412ZM114.211 27.3365C114.213 27.3347 114.216 27.3333 114.219 27.3319C114.216 27.3333 114.213 27.3347 114.211 27.3365ZM114.219 27.3315C114.24 27.3199 114.259 27.3079 114.279 27.2963C114.259 27.3079 114.24 27.3199 114.219 27.3315ZM114.279 27.2962C114.287 27.2911 114.295 27.286 114.303 27.2809C114.295 27.286 114.287 27.2911 114.279 27.2962ZM114.305 27.2799C114.308 27.2785 114.31 27.2771 114.312 27.2758C114.31 27.2771 114.308 27.2785 114.305 27.2799ZM114.315 27.2735C114.317 27.273 114.318 27.2721 114.319 27.2716C114.318 27.2721 114.317 27.273 114.315 27.2735ZM114.323 27.2684C114.324 27.2679 114.324 27.2674 114.325 27.267C114.324 27.2674 114.324 27.2679 114.323 27.2684Z" fill="#4E6990"/>
<path fill-rule="evenodd" clip-rule="evenodd" d="M111.086 27.4275L104.318 23.4411L105.177 22.9509C105.492 22.8057 105.876 22.7329 106.26 22.7329C106.697 22.7329 107.134 22.828 107.469 23.0195L112.608 25.9684C112.775 26.0639 112.9 26.1743 112.983 26.2917C112.91 26.3645 112.819 26.4331 112.711 26.4953L111.086 27.4275Z" fill="#5B6F91"/>
<path fill-rule="evenodd" clip-rule="evenodd" d="M112.551 28.2898L111.086 27.4276L112.711 26.4953C112.819 26.4332 112.91 26.3645 112.983 26.2917C113.339 25.9397 113.285 25.487 112.82 25.1656C112.819 25.1651 112.818 25.1642 112.817 25.1637C112.816 25.1628 112.815 25.1623 112.814 25.1619C112.812 25.1605 112.81 25.1591 112.808 25.1577C112.808 25.1577 112.808 25.1572 112.808 25.1572C112.806 25.1559 112.803 25.1545 112.801 25.1531C112.801 25.1531 112.801 25.1531 112.801 25.1526C112.775 25.1354 112.748 25.1183 112.719 25.1021C112.719 25.1016 112.719 25.1016 112.718 25.1016C112.716 25.1002 112.713 25.0983 112.711 25.097L107.57 22.1481C107.235 21.9552 106.793 21.8587 106.352 21.8587C105.911 21.8587 105.469 21.9552 105.133 22.1481L103.608 23.0228L102.144 22.1602L103.65 21.2966C104.395 20.8694 105.374 20.6556 106.352 20.6556C107.331 20.6556 108.309 20.8694 109.055 21.2966L114.195 24.2454C114.952 24.6805 115.325 25.2542 115.311 25.8251C115.31 25.8947 115.303 25.9643 115.29 26.0338C115.29 26.0324 115.289 26.0306 115.289 26.0292C115.206 26.4768 114.886 26.9123 114.327 27.2671C114.326 27.2675 114.325 27.268 114.325 27.2685C114.323 27.2694 114.322 27.2703 114.32 27.2717C114.319 27.2722 114.317 27.2731 114.316 27.2736C114.315 27.2745 114.314 27.2754 114.313 27.2759C114.31 27.2773 114.309 27.2787 114.306 27.2801C114.306 27.2801 114.305 27.2805 114.305 27.281C114.297 27.2861 114.288 27.2912 114.28 27.2963C114.26 27.3079 114.241 27.32 114.221 27.3316C114.221 27.3316 114.221 27.3316 114.22 27.332C114.218 27.3334 114.215 27.3348 114.212 27.3367C114.212 27.3367 114.212 27.3367 114.211 27.3371C114.209 27.3385 114.206 27.3399 114.204 27.3413C114.203 27.3418 114.203 27.3418 114.203 27.3418C114.2 27.3436 114.197 27.345 114.195 27.3469L112.551 28.2898Z" fill="#4E6990"/>
<path fill-rule="evenodd" clip-rule="evenodd" d="M113.163 26.0291C113.091 25.8584 112.941 25.6961 112.709 25.563L107.568 22.6141C107.233 22.4212 106.791 22.3252 106.35 22.3252C105.909 22.3252 105.467 22.4212 105.131 22.6141L104.007 23.2588L103.606 23.0227L105.131 22.148C105.467 21.9551 105.909 21.8586 106.35 21.8586C106.791 21.8586 107.233 21.9551 107.568 22.148L112.709 25.0969C112.711 25.0982 112.714 25.1001 112.716 25.1015C112.717 25.1015 112.717 25.1015 112.717 25.102C112.746 25.1182 112.773 25.1353 112.799 25.1525C112.799 25.153 112.799 25.153 112.799 25.153C112.801 25.1544 112.804 25.1558 112.805 25.1571C112.806 25.1571 112.806 25.1576 112.806 25.1576C112.808 25.159 112.81 25.1604 112.812 25.1618C112.813 25.1622 112.814 25.1627 112.815 25.1636C112.816 25.1641 112.817 25.165 112.818 25.1655C113.173 25.4113 113.287 25.7337 113.163 26.0291Z" fill="#5B6F91"/>
<path fill-rule="evenodd" clip-rule="evenodd" d="M112.951 28.5264L112.551 28.2898L114.194 27.3469C114.197 27.345 114.2 27.3437 114.203 27.3418C114.203 27.3418 114.203 27.3418 114.204 27.3413C114.207 27.3399 114.209 27.3386 114.211 27.3372C114.212 27.3367 114.212 27.3367 114.212 27.3367C114.215 27.3348 114.218 27.3334 114.22 27.3321C114.221 27.3316 114.221 27.3316 114.221 27.3316C114.241 27.32 114.26 27.3079 114.28 27.2963C114.288 27.2912 114.297 27.2861 114.305 27.281C114.305 27.2806 114.306 27.2801 114.306 27.2801C114.308 27.2787 114.31 27.2773 114.313 27.2759C114.313 27.2755 114.315 27.2745 114.316 27.2736C114.317 27.2732 114.318 27.2722 114.32 27.2718C114.321 27.2704 114.323 27.2694 114.325 27.2685C114.325 27.2681 114.326 27.2676 114.327 27.2671C114.886 26.9123 115.206 26.4768 115.289 26.0292C115.289 26.0306 115.289 26.0325 115.289 26.0339C115.405 26.6688 115.041 27.3274 114.194 27.813L112.951 28.5264Z" fill="#5B6F91"/>
<path fill-rule="evenodd" clip-rule="evenodd" d="M124.628 33.1429C124.544 33.0256 124.42 32.9152 124.253 32.8197L119.113 29.8703C118.779 29.6793 118.342 29.5842 117.905 29.5842C117.521 29.5842 117.137 29.657 116.821 29.8026L115.956 30.2966L115.647 30.1143L116.777 29.4654C117.114 29.2725 117.555 29.176 117.997 29.176C118.438 29.176 118.879 29.2725 119.215 29.465L124.355 32.4143C124.587 32.5474 124.737 32.7093 124.809 32.8809C124.941 32.5655 124.803 32.2204 124.391 31.9695C124.922 32.2932 125.002 32.7728 124.628 33.1429ZM124.388 31.9685C124.386 31.9671 124.384 31.9657 124.382 31.9644C124.384 31.9657 124.386 31.9671 124.388 31.9685ZM124.379 31.9625C124.378 31.9621 124.377 31.9616 124.376 31.9607C124.377 31.9616 124.378 31.9621 124.379 31.9625ZM124.371 31.9583C124.37 31.9578 124.369 31.9574 124.368 31.9569C124.369 31.9574 124.37 31.9578 124.371 31.9583ZM124.362 31.9533C124.362 31.9528 124.361 31.9524 124.361 31.9519C124.361 31.9524 124.362 31.9528 124.362 31.9533Z" fill="#452B69"/>
<path fill-rule="evenodd" clip-rule="evenodd" d="M125.984 36.2027L124.59 35.3813L125.84 34.6638C126.686 34.1787 127.05 33.5201 126.935 32.8851C126.947 32.8211 126.955 32.7566 126.957 32.6926V35.6447L125.984 36.2027ZM124.189 35.1452L125.84 34.1977C125.843 34.1963 125.846 34.1949 125.848 34.1935C125.846 34.1949 125.843 34.1963 125.84 34.1977L124.189 35.1452ZM125.855 34.1893C125.856 34.1893 125.856 34.1893 125.856 34.1893H125.855Z" fill="#523470"/>
<path fill-rule="evenodd" clip-rule="evenodd" d="M122.722 34.2826L115.955 30.2967L116.82 29.8027C117.136 29.6571 117.52 29.5843 117.904 29.5843C118.341 29.5843 118.778 29.6794 119.112 29.8705L124.252 32.8198C124.418 32.9153 124.543 33.0257 124.626 33.143C124.553 33.2159 124.462 33.2845 124.353 33.3467L122.722 34.2826Z" fill="#5B6F91"/>
<path fill-rule="evenodd" clip-rule="evenodd" d="M124.187 35.1452L122.722 34.2825L124.354 33.3466C124.462 33.2844 124.553 33.2158 124.627 33.143C125 32.7729 124.921 32.2933 124.39 31.9695C124.39 31.9691 124.389 31.9686 124.389 31.9686C124.386 31.9672 124.384 31.9658 124.382 31.9644C124.381 31.964 124.38 31.9635 124.379 31.9626C124.378 31.9621 124.377 31.9617 124.376 31.9607C124.375 31.9598 124.373 31.9589 124.371 31.9584C124.371 31.9579 124.37 31.9575 124.369 31.957C124.367 31.9556 124.365 31.9542 124.363 31.9533C124.362 31.9528 124.362 31.9524 124.361 31.9519C124.359 31.951 124.356 31.9496 124.354 31.9482L119.214 28.9989C118.878 28.8064 118.437 28.7099 117.996 28.7099C117.554 28.7099 117.112 28.8064 116.776 28.9989L115.245 29.8778L113.781 29.0156L115.293 28.1478C115.298 28.1446 115.304 28.1418 115.31 28.1385C116.053 27.7174 117.024 27.5068 117.996 27.5068C118.974 27.5068 119.953 27.7206 120.698 28.1478L125.838 31.0971C126.603 31.5359 126.975 32.1161 126.955 32.6926C126.952 32.7566 126.945 32.8211 126.933 32.8851C126.933 32.8837 126.932 32.8823 126.932 32.8809C126.844 33.3586 126.485 33.8224 125.853 34.1893C125.853 34.1893 125.853 34.1893 125.852 34.1893C125.85 34.1907 125.848 34.1921 125.845 34.1935C125.843 34.1949 125.84 34.1963 125.838 34.1977L124.187 35.1452Z" fill="#523470"/>
<path fill-rule="evenodd" clip-rule="evenodd" d="M124.809 32.8809C124.738 32.7093 124.587 32.5474 124.355 32.4143L119.215 29.465C118.879 29.2725 118.438 29.176 117.997 29.176C117.555 29.176 117.114 29.2725 116.778 29.4654L115.647 30.1143L115.246 29.8778L116.778 28.9988C117.114 28.8064 117.555 28.7099 117.997 28.7099C118.438 28.7099 118.879 28.8064 119.215 28.9988L124.355 31.9482C124.358 31.9496 124.36 31.951 124.362 31.9519C124.363 31.9523 124.364 31.9528 124.364 31.9533C124.367 31.9542 124.368 31.9556 124.37 31.957C124.371 31.9574 124.372 31.9579 124.373 31.9584C124.374 31.9588 124.376 31.9598 124.377 31.9607C124.378 31.9616 124.379 31.9621 124.381 31.9626C124.382 31.9635 124.382 31.9639 124.383 31.9644C124.386 31.9658 124.388 31.9672 124.39 31.9686C124.39 31.9686 124.391 31.969 124.391 31.9695C124.803 32.2204 124.942 32.5655 124.809 32.8809Z" fill="#5B6F91"/>
<path fill-rule="evenodd" clip-rule="evenodd" d="M124.589 35.3813L124.188 35.1452L125.839 34.1977C125.842 34.1963 125.844 34.1949 125.847 34.1935C125.849 34.1921 125.851 34.1907 125.854 34.1893H125.854C126.487 33.8224 126.845 33.3586 126.934 32.8809C126.934 32.8823 126.934 32.8837 126.934 32.8851C127.049 33.52 126.685 34.1786 125.839 34.6638L124.589 35.3813Z" fill="#5B6F91"/>
<path opacity="0.3" fill-rule="evenodd" clip-rule="evenodd" d="M130.439 81.1358L129.579 80.6423L131.223 79.7078L132.075 80.1966L130.439 81.1358ZM126.511 83.389L126.798 82.223L129.578 80.6423L130.438 81.1358L126.511 83.389ZM132.074 80.1966L131.222 79.7077L138.92 75.3318V75.3151C138.94 75.8906 138.568 76.4704 137.804 76.9092L132.074 80.1966Z" fill="#92B6E7"/>
<path fill-rule="evenodd" clip-rule="evenodd" d="M136.594 40.4656C136.51 40.3478 136.385 40.2374 136.219 40.1423L131.079 37.193C130.745 37.0014 130.308 36.9063 129.87 36.9063C129.487 36.9063 129.103 36.9796 128.787 37.1248L128.159 37.4838L127.849 37.3015L128.744 36.7876C129.08 36.5951 129.521 36.4987 129.962 36.4987C130.404 36.4987 130.845 36.5951 131.181 36.7876L136.321 39.7369C136.553 39.87 136.703 40.0324 136.775 40.203C136.898 39.9095 136.787 39.5894 136.438 39.3446C136.896 39.6655 136.948 40.1149 136.594 40.4656ZM136.437 39.3445C136.434 39.3426 136.432 39.3407 136.43 39.3394C136.432 39.3407 136.434 39.3426 136.437 39.3445ZM136.428 39.3371C136.427 39.3366 136.426 39.3361 136.425 39.3352C136.426 39.3361 136.427 39.3366 136.428 39.3371ZM136.42 39.3315C136.419 39.3311 136.419 39.3311 136.419 39.3311C136.419 39.3311 136.419 39.3311 136.42 39.3315ZM136.412 39.3269C136.411 39.3264 136.411 39.3264 136.411 39.3264C136.411 39.3264 136.411 39.3264 136.412 39.3269ZM136.329 39.2754C136.329 39.2754 136.328 39.2754 136.328 39.2749C136.328 39.2754 136.329 39.2754 136.329 39.2754Z" fill="#2D4F80"/>
<path opacity="0.05" fill-rule="evenodd" clip-rule="evenodd" d="M130.774 66.0952L132.239 65.2544V60.1493L136.536 42.7145L137.805 41.9863C138.651 41.5007 139.015 40.8426 138.9 40.2072C138.912 40.1427 138.919 40.0782 138.922 40.0133V75.3319L131.223 79.7078L129.579 80.6424L126.798 82.2231L130.774 66.0952ZM137.804 41.5203C137.807 41.5189 137.81 41.517 137.813 41.5156C137.81 41.517 137.807 41.5189 137.804 41.5203L136.389 42.3324L137.804 41.5203ZM137.821 41.5105C137.818 41.5119 137.815 41.5137 137.813 41.5151C137.815 41.5137 137.818 41.5119 137.821 41.5105ZM137.831 41.5054C137.829 41.5068 137.826 41.5086 137.823 41.51C137.826 41.5086 137.829 41.5068 137.831 41.5054ZM137.891 41.4696C137.872 41.4817 137.852 41.4937 137.832 41.5053C137.852 41.4933 137.872 41.4817 137.891 41.4696ZM137.916 41.4543C137.908 41.4594 137.9 41.4645 137.891 41.4697C137.9 41.4645 137.908 41.4594 137.916 41.4543ZM137.925 41.4497C137.922 41.4511 137.92 41.4525 137.918 41.4539C137.92 41.4525 137.922 41.4511 137.925 41.4497ZM137.931 41.4451C137.929 41.446 137.928 41.4465 137.927 41.4474C137.928 41.4469 137.929 41.446 137.931 41.4451ZM137.938 41.4409C137.937 41.4414 137.936 41.4414 137.936 41.4418C137.936 41.4414 137.937 41.4414 137.938 41.4409Z" fill="white"/>
<path fill-rule="evenodd" clip-rule="evenodd" d="M128.158 37.4836L128.786 37.1246C129.102 36.9795 129.487 36.9062 129.87 36.9062C130.307 36.9062 130.744 37.0013 131.079 37.1928L136.219 40.1421C136.385 40.2372 136.51 40.3476 136.593 40.4654C136.52 40.5382 136.429 40.6064 136.32 40.669L134.924 41.4695L128.158 37.4836Z" fill="#5B6F91"/>
<path fill-rule="evenodd" clip-rule="evenodd" d="M136.389 42.3323L134.924 41.4696L136.32 40.6691C136.429 40.6065 136.52 40.5383 136.593 40.4655C136.947 40.1149 136.895 39.6655 136.437 39.3445C136.434 39.3426 136.432 39.3408 136.43 39.3394C136.429 39.3385 136.428 39.338 136.426 39.3371C136.426 39.3366 136.425 39.3362 136.424 39.3352C136.422 39.3343 136.42 39.3329 136.418 39.3315C136.418 39.331 136.417 39.331 136.417 39.331C136.416 39.3297 136.413 39.3283 136.411 39.3269C136.411 39.3264 136.411 39.3264 136.41 39.3264C136.385 39.3088 136.357 39.2921 136.329 39.2754C136.329 39.2754 136.328 39.2754 136.328 39.2749C136.326 39.2735 136.323 39.2721 136.321 39.2708L131.18 36.3219C130.845 36.129 130.403 36.0325 129.962 36.0325C129.521 36.0325 129.079 36.129 128.743 36.3219L127.447 37.0654L125.983 36.2027L126.955 35.6447L127.26 35.4704C128.004 35.0427 128.983 34.8289 129.962 34.8289C130.941 34.8289 131.919 35.0427 132.665 35.4704L137.805 38.4192C138.569 38.858 138.941 39.4373 138.921 40.0133C138.919 40.0782 138.912 40.1427 138.899 40.2072C138.899 40.2058 138.899 40.2044 138.899 40.203C138.816 40.6501 138.496 41.0861 137.937 41.4409C137.936 41.4414 137.935 41.4414 137.935 41.4418C137.933 41.4432 137.931 41.4441 137.93 41.4451C137.928 41.446 137.927 41.4469 137.926 41.4474C137.925 41.4483 137.924 41.4488 137.923 41.4497C137.92 41.4511 137.918 41.4525 137.916 41.4539C137.916 41.4539 137.915 41.4543 137.915 41.4543C137.907 41.4594 137.898 41.4645 137.89 41.4696C137.87 41.4817 137.851 41.4933 137.831 41.5054C137.83 41.5054 137.83 41.5054 137.83 41.5054C137.828 41.5067 137.825 41.5086 137.822 41.51C137.822 41.5105 137.822 41.5105 137.821 41.5105C137.819 41.5118 137.816 41.5137 137.814 41.5151C137.813 41.5151 137.813 41.5156 137.813 41.5156C137.81 41.517 137.807 41.5188 137.805 41.5202L136.389 42.3323Z" fill="#4E6990"/>
<path fill-rule="evenodd" clip-rule="evenodd" d="M130.773 66.0953L132.238 60.1494V65.2544L130.773 66.0953Z" fill="#5B6F91"/>
<path fill-rule="evenodd" clip-rule="evenodd" d="M136.774 40.203C136.702 40.0324 136.553 39.87 136.321 39.7369L131.18 36.7876C130.845 36.5951 130.403 36.4987 129.962 36.4987C129.52 36.4987 129.079 36.5951 128.743 36.7876L127.848 37.3015L127.447 37.0654L128.743 36.3219C129.079 36.129 129.52 36.0325 129.962 36.0325C130.403 36.0325 130.845 36.129 131.18 36.3219L136.321 39.2708C136.323 39.2722 136.326 39.2736 136.328 39.275C136.328 39.2754 136.329 39.2754 136.329 39.2754C136.357 39.2921 136.385 39.3088 136.41 39.3265C136.411 39.3265 136.411 39.3265 136.411 39.3269C136.413 39.3283 136.415 39.3297 136.417 39.3311C136.417 39.3311 136.418 39.3311 136.418 39.3316C136.42 39.333 136.422 39.3343 136.424 39.3353C136.425 39.3362 136.426 39.3367 136.426 39.3371C136.427 39.3381 136.428 39.3385 136.429 39.3394C136.432 39.3408 136.434 39.3427 136.437 39.3445C136.786 39.5894 136.897 39.9095 136.774 40.203Z" fill="#5B6F91"/>
<path fill-rule="evenodd" clip-rule="evenodd" d="M136.535 42.7145L136.599 42.4562L136.389 42.3323L137.804 41.5202C137.807 41.5188 137.81 41.517 137.813 41.5156C137.813 41.5156 137.813 41.5151 137.814 41.5151C137.816 41.5137 137.819 41.5119 137.821 41.5105C137.822 41.5105 137.822 41.5105 137.822 41.51C137.825 41.5086 137.828 41.5068 137.83 41.5054C137.83 41.5054 137.83 41.5054 137.831 41.5054C137.851 41.4938 137.87 41.4817 137.89 41.4696C137.898 41.4645 137.907 41.4594 137.915 41.4543C137.915 41.4543 137.915 41.4539 137.916 41.4539C137.918 41.4525 137.92 41.4511 137.922 41.4497C137.923 41.4488 137.925 41.4483 137.926 41.4474C137.927 41.4465 137.928 41.446 137.929 41.4451C137.931 41.4441 137.933 41.4432 137.935 41.4418C137.935 41.4414 137.936 41.4414 137.936 41.4409C138.496 41.0861 138.816 40.6501 138.898 40.203C138.899 40.2044 138.899 40.2058 138.899 40.2072C139.015 40.8426 138.651 41.5007 137.804 41.9863L136.535 42.7145Z" fill="#5B6F91"/>
</g>
<mask id="mask1_299_383" style="mask-type:alpha" maskUnits="userSpaceOnUse" x="47" y="18" width="92" height="86">
<path fill-rule="evenodd" clip-rule="evenodd" d="M125.989 85.5068L136.6 42.4561L96.5036 18.8384L47.6161 36.9063L85.1329 85.5564C85.1329 85.5564 116.108 103.097 115.927 103.622C115.746 104.147 138.39 90.3178 138.39 90.3178L125.989 85.5068Z" fill="white"/>
</mask>
<g mask="url(#mask1_299_383)">
<path fill-rule="evenodd" clip-rule="evenodd" d="M114.194 59.6344C115.684 60.4897 115.684 61.8806 114.194 62.7359L88.8642 77.2682C88.4544 77.5033 87.7903 77.5033 87.3805 77.2682C86.9712 77.033 86.9712 76.6523 87.3805 76.4171L112.71 61.8843C113.382 61.4989 113.382 60.8714 112.71 60.4855L110.255 59.0774C110.528 58.6697 110.776 58.2453 111.018 57.8121L114.194 59.6344Z" fill="#92B6E7"/>
<path fill-rule="evenodd" clip-rule="evenodd" d="M78.3206 71.2184L103.65 56.6856C105.14 55.8308 107.565 55.8304 109.055 56.6856L111.019 57.8122C110.777 58.2454 110.529 58.6698 110.256 59.0775L107.571 57.5372C106.899 57.1513 105.806 57.1513 105.134 57.5372L79.8038 72.0695C79.394 72.3047 78.7304 72.3047 78.3206 72.0695C77.9108 71.8348 77.9108 71.4536 78.3206 71.2184Z" fill="#92B6E7"/>
<path fill-rule="evenodd" clip-rule="evenodd" d="M78.0156 71.6739L78.0133 36.2792L104.557 21.5744L108.27 21.3309L111.859 23.642L114.062 25.5468L88.1999 66.3026L79.756 71.2481L78.0156 71.6739Z" fill="#92B6E7"/>
<path fill-rule="evenodd" clip-rule="evenodd" d="M87.8314 76.1444L79.8972 71.5922V37.3849L88.0764 41.163L87.8314 76.1444Z" fill="#76A9CF"/>
<path fill-rule="evenodd" clip-rule="evenodd" d="M115.311 25.8209V61.158L87.445 76.9973L87.0735 76.8494V41.4603L115.311 25.8209Z" fill="#D4EAF2"/>
<path fill-rule="evenodd" clip-rule="evenodd" d="M99.6385 26.1136L105.177 22.9509C105.853 22.6397 106.841 22.6597 107.469 23.0196L112.608 25.9684C113.007 26.1966 113.167 26.5102 113.093 26.8079L99.099 35.1179L87.8585 41.9743L79.8972 37.3849L99.6385 26.1136Z" fill="#FFFFFE"/>
<path fill-rule="evenodd" clip-rule="evenodd" d="M88.0765 40.9047V77.4421C87.8235 77.4356 87.5738 77.379 87.3806 77.2682C87.179 77.1527 87.0777 77.0015 87.0745 76.8503L87.0735 76.8494V41.4603L88.0765 40.9047Z" fill="#92B6E7"/>
<path fill-rule="evenodd" clip-rule="evenodd" d="M78.0133 36.7208V36.2792H78.1547L78.1981 36.5789L78.0133 36.7208Z" fill="#FFFFFE"/>
<path fill-rule="evenodd" clip-rule="evenodd" d="M87.0746 41.9191V41.4669L87.2114 41.6584L87.0746 41.9191Z" fill="#FFFFFE"/>
<path fill-rule="evenodd" clip-rule="evenodd" d="M88.8652 41.8791L114.195 27.3468C115.685 26.4915 115.685 25.1006 114.195 24.2453L109.055 21.2965C107.565 20.4417 105.14 20.4417 103.65 21.2965L78.3206 35.8293C77.9108 36.0644 77.9108 36.4457 78.3206 36.6808C78.7304 36.9155 79.394 36.9155 79.8038 36.6808L105.134 22.148C105.806 21.7621 106.899 21.7621 107.571 22.148L112.711 25.0969C113.383 25.4823 113.383 26.1098 112.711 26.4953L87.3815 41.028C86.9722 41.2632 86.9722 41.6444 87.3815 41.8796C87.7913 42.1143 88.4554 42.1143 88.8652 41.8791Z" fill="#D4EAF2"/>
<path fill-rule="evenodd" clip-rule="evenodd" d="M95.4653 58.6326L108.628 51.081V37.9684L95.4653 45.5205V58.6326Z" fill="#FFFFFE"/>
<path fill-rule="evenodd" clip-rule="evenodd" d="M78.3199 36.6808C78.7297 36.9155 79.3934 36.9155 79.8032 36.6808L105.133 22.148C105.805 21.7621 106.899 21.7621 107.57 22.148L112.711 25.0969C113.151 25.3492 113.301 25.7054 113.164 26.0291C113.092 25.8584 112.943 25.6961 112.711 25.563L107.57 22.6141C106.899 22.2287 105.805 22.2287 105.133 22.6141L79.8032 37.1469C79.3934 37.3821 78.7297 37.3821 78.3199 37.1469C78.0096 36.9688 77.9349 36.7068 78.0954 36.4878C78.1468 36.5579 78.2205 36.6237 78.3199 36.6808Z" fill="#FFFFFE"/>
<path fill-rule="evenodd" clip-rule="evenodd" d="M87.38 41.8797C87.7897 42.1144 88.4539 42.1144 88.8637 41.8792L114.193 27.3469C114.835 26.9786 115.199 26.5107 115.288 26.0292C115.406 26.6656 115.042 27.326 114.193 27.813L88.8637 42.3458C88.4539 42.581 87.7897 42.581 87.38 42.3458C87.0696 42.1677 86.9954 41.9061 87.1555 41.6868C87.2068 41.7568 87.281 41.8226 87.38 41.8797Z" fill="#FFFFFE"/>
<path fill-rule="evenodd" clip-rule="evenodd" d="M125.838 66.4858C127.328 67.3405 127.328 68.732 125.838 69.5867L100.509 84.1195C100.099 84.3547 99.4346 84.3547 99.0248 84.1195C98.6151 83.8844 98.6151 83.5031 99.0248 83.268L124.354 68.7357C125.027 68.3498 125.027 67.7227 124.355 67.3373L121.9 65.9287C122.173 65.5215 122.421 65.0971 122.662 64.6639L125.838 66.4858Z" fill="#FC5252"/>
<path fill-rule="evenodd" clip-rule="evenodd" d="M89.9634 78.0697L115.293 63.5369C116.783 62.6816 119.208 62.6816 120.698 63.5369L122.662 64.6639C122.42 65.0971 122.172 65.5215 121.9 65.9287L119.214 64.388C118.542 64.0025 117.449 64.0025 116.776 64.388L91.4467 78.9208C91.0374 79.1559 90.3732 79.1559 89.9634 78.9208C89.5537 78.6856 89.5537 78.3044 89.9634 78.0697Z" fill="#FC5252"/>
<path fill-rule="evenodd" clip-rule="evenodd" d="M89.6591 78.5256L89.6572 43.1305L116.201 28.4256L119.913 28.1826L123.503 30.4928L125.706 32.3985L99.8434 73.1538L91.3995 78.0993L89.6591 78.5256Z" fill="#FC5252"/>
<path fill-rule="evenodd" clip-rule="evenodd" d="M99.4776 82.9953L91.5434 78.4435V44.2362L99.7222 48.0139L99.4776 82.9953Z" fill="#FFCDCD"/>
<path fill-rule="evenodd" clip-rule="evenodd" d="M126.956 32.6722V68.0094L99.0901 83.8487L98.7186 83.7007V48.3117L126.956 32.6722Z" fill="#FFA3A3"/>
<path fill-rule="evenodd" clip-rule="evenodd" d="M111.284 32.9643L116.822 29.8026C117.499 29.4914 118.487 29.5113 119.114 29.8703L124.254 32.8196C124.652 33.0483 124.813 33.3613 124.739 33.6586L110.745 41.9686L99.5042 48.8255L91.5434 44.2361L111.284 32.9643Z" fill="#FFFFFE"/>
<path fill-rule="evenodd" clip-rule="evenodd" d="M99.7211 47.7564V84.2934C99.4682 84.2869 99.2185 84.2303 99.0252 84.1195C98.8236 84.004 98.7223 83.8532 98.7195 83.7016L98.7186 83.7006V48.3116L99.7211 47.7564Z" fill="#FC5252"/>
<path fill-rule="evenodd" clip-rule="evenodd" d="M89.6572 43.5716V43.1305H89.7982L89.8416 43.4301L89.6572 43.5716Z" fill="#FFFFFE"/>
<path fill-rule="evenodd" clip-rule="evenodd" d="M98.7186 48.7704V48.3182L98.8554 48.5102L98.7186 48.7704Z" fill="#FFFFFE"/>
<path fill-rule="evenodd" clip-rule="evenodd" d="M100.509 48.7305L125.838 34.1977C127.328 33.3434 127.328 31.952 125.838 31.0972L120.698 28.1479C119.208 27.2931 116.783 27.2931 115.293 28.1479L89.9634 42.6807C89.5537 42.9158 89.5537 43.2971 89.9634 43.5317C90.3732 43.7669 91.0374 43.7669 91.4467 43.5317L116.776 28.9989C117.449 28.6135 118.542 28.6135 119.214 28.9989L124.354 31.9483C125.026 32.3341 125.026 32.9607 124.354 33.3466L99.0243 47.8794C98.615 48.1146 98.6146 48.4958 99.0243 48.7305C99.4341 48.9656 100.099 48.9656 100.509 48.7305Z" fill="#FFA3A3"/>
<path fill-rule="evenodd" clip-rule="evenodd" d="M107.109 65.484L120.272 57.9323V44.8197L107.109 52.3713V65.484Z" fill="#FFFFFE"/>
<path fill-rule="evenodd" clip-rule="evenodd" d="M89.9637 43.5317C90.3735 43.7668 91.0376 43.7668 91.4469 43.5317L116.777 28.9989C117.449 28.6135 118.542 28.6135 119.214 28.9989L124.354 31.9482C124.794 32.201 124.944 32.5563 124.808 32.8809C124.737 32.7093 124.586 32.5475 124.354 32.4143L119.214 29.465C118.542 29.0796 117.449 29.0796 116.777 29.4655L91.4469 43.9978C91.0376 44.233 90.3735 44.233 89.9637 43.9978C89.6533 43.8202 89.5791 43.5581 89.7392 43.3392C89.7905 43.4093 89.8643 43.4746 89.9637 43.5317Z" fill="#FFFFFE"/>
<path fill-rule="evenodd" clip-rule="evenodd" d="M99.0249 48.7304C99.4346 48.9656 100.099 48.9656 100.509 48.7304L125.838 34.1977C126.48 33.8294 126.844 33.3623 126.933 32.8809C127.05 33.5173 126.686 34.1772 125.838 34.6638L100.509 49.1966C100.099 49.4317 99.4346 49.4317 99.0249 49.1966C98.7145 49.0185 98.6407 48.7569 98.8004 48.538C98.8517 48.608 98.9259 48.6734 99.0249 48.7304Z" fill="#FFFFFE"/>
<path fill-rule="evenodd" clip-rule="evenodd" d="M137.806 73.8082C139.296 74.663 139.296 76.0544 137.806 76.9092L112.476 91.4416C112.066 91.6767 111.402 91.6767 110.992 91.4416C110.583 91.2064 110.583 90.8256 110.992 90.5905L136.322 76.0577C136.994 75.6723 136.994 75.0452 136.322 74.6593L133.867 73.2512C134.14 72.8435 134.388 72.4192 134.63 71.986L137.806 73.8082Z" fill="#92B6E7"/>
<path fill-rule="evenodd" clip-rule="evenodd" d="M101.93 85.3917L127.259 70.8589C128.749 70.0045 131.174 70.0041 132.665 70.8589L134.628 71.9859C134.386 72.4191 134.139 72.8435 133.866 73.2512L131.18 71.7104C130.509 71.3245 129.415 71.3245 128.743 71.7104L103.413 86.2427C103.004 86.4779 102.339 86.4779 101.93 86.2427C101.52 86.0081 101.52 85.6268 101.93 85.3917Z" fill="#92B6E7"/>
<path fill-rule="evenodd" clip-rule="evenodd" d="M101.625 85.8477L101.623 50.4526L128.167 35.7477L131.879 35.5047L135.469 37.8154L137.672 39.7207L111.809 80.4764L103.365 85.4219L101.625 85.8477Z" fill="#92B6E7"/>
<path fill-rule="evenodd" clip-rule="evenodd" d="M111.443 90.3177L103.509 85.766V51.5582L111.688 55.3368L111.443 90.3177Z" fill="#76A9CF"/>
<path fill-rule="evenodd" clip-rule="evenodd" d="M138.922 39.9943V75.3319L111.057 91.1707L110.685 91.0232V55.6337L138.922 39.9943Z" fill="#D7E8FE"/>
<path fill-rule="evenodd" clip-rule="evenodd" d="M123.25 40.2869L128.788 37.1247C129.464 36.8135 130.453 36.8334 131.08 37.1929L136.22 40.1422C136.618 40.3704 136.778 40.6839 136.705 40.9812L122.711 49.2912L111.47 56.148L103.509 51.5582L123.25 40.2869Z" fill="#FFFFFE"/>
<path fill-rule="evenodd" clip-rule="evenodd" d="M111.688 55.0786V91.6155C111.435 91.6095 111.185 91.5529 110.992 91.4416C110.791 91.3261 110.689 91.1754 110.686 91.0242L110.685 91.0233V55.6337L111.688 55.0786Z" fill="#92B6E7"/>
<path fill-rule="evenodd" clip-rule="evenodd" d="M101.623 50.8941V50.4526H101.764L101.807 50.7527L101.623 50.8941Z" fill="#FFFFFE"/>
<path fill-rule="evenodd" clip-rule="evenodd" d="M110.685 56.0924V55.6402L110.822 55.8322L110.685 56.0924Z" fill="#FFFFFE"/>
<path fill-rule="evenodd" clip-rule="evenodd" d="M112.474 56.0529L137.804 41.5206C139.294 40.6653 139.294 39.2744 137.804 38.4191L132.665 35.4703C131.174 34.6155 128.749 34.6155 127.259 35.4703L101.93 50.003C101.52 50.2377 101.52 50.6194 101.93 50.8546C102.339 51.0888 103.004 51.0888 103.413 50.8541L128.743 36.3218C129.415 35.9354 130.509 35.9354 131.18 36.3218L136.321 39.2707C136.992 39.6561 136.992 40.2836 136.32 40.669L110.991 55.2018C110.581 55.4365 110.581 55.8182 110.991 56.0529C111.4 56.2876 112.065 56.2876 112.474 56.0529Z" fill="#D4EAF2"/>
<path fill-rule="evenodd" clip-rule="evenodd" d="M119.077 72.8064L132.239 65.2543V52.1422L119.077 59.6938V72.8064Z" fill="#FFFFFE"/>
<path fill-rule="evenodd" clip-rule="evenodd" d="M101.931 50.8542C102.341 51.0889 103.005 51.0889 103.415 50.8542L128.745 36.3219C129.417 35.9355 130.51 35.9355 131.182 36.3219L136.322 39.2707C136.762 39.523 136.912 39.8788 136.776 40.203C136.704 40.0323 136.554 39.87 136.322 39.7368L131.182 36.7875C130.51 36.4021 129.417 36.4021 128.745 36.7875L103.415 51.3203C103.005 51.5555 102.341 51.5555 101.931 51.3203C101.621 51.1422 101.547 50.8802 101.707 50.6613C101.758 50.7317 101.832 50.7971 101.931 50.8542Z" fill="#FFFFFE"/>
<path fill-rule="evenodd" clip-rule="evenodd" d="M110.992 56.053C111.401 56.2877 112.066 56.2877 112.475 56.053L137.805 41.5207C138.447 41.1524 138.811 40.6844 138.899 40.203C139.017 40.8393 138.653 41.4998 137.805 41.9863L112.475 56.5191C112.066 56.7543 111.401 56.7543 110.992 56.5191C110.681 56.341 110.607 56.079 110.767 55.86C110.818 55.9305 110.893 55.9959 110.992 56.053Z" fill="#FFFFFE"/>
</g>
<path opacity="0.05" fill-rule="evenodd" clip-rule="evenodd" d="M100.019 160.001C99.3632 160.001 98.7066 159.858 98.2058 159.57C97.2037 158.996 97.2037 158.064 98.2058 157.489L144.99 130.637C145.491 130.349 146.147 130.206 146.803 130.206C147.46 130.206 148.116 130.349 148.618 130.637C149.619 131.211 149.619 132.143 148.618 132.717L101.833 159.571C101.332 159.858 100.676 160.001 100.019 160.001Z" fill="#000E4B"/>
<path fill-rule="evenodd" clip-rule="evenodd" d="M156.615 116.091C156.57 116.015 156.481 115.976 156.395 115.995L153.565 116.605L154.679 118.489L156.592 116.328C156.651 116.262 156.66 116.166 156.615 116.091Z" fill="#D4EAF2"/>
<path fill-rule="evenodd" clip-rule="evenodd" d="M155.497 117.48C155.494 117.075 155.204 116.583 154.848 116.384C154.684 116.291 154.536 116.28 154.424 116.332C151.153 116.305 147.937 117.16 145.118 118.807L144.913 118.927L148.428 124.87L149.466 124.186C151.663 122.738 153.515 120.83 154.891 118.596L155.336 117.875C155.437 117.802 155.499 117.668 155.497 117.48Z" fill="#381DDB"/>
<path fill-rule="evenodd" clip-rule="evenodd" d="M149.135 123.286C149.123 121.732 148.01 119.851 146.65 119.084C145.289 118.318 144.196 118.956 144.208 120.51C144.22 122.065 145.333 123.946 146.694 124.712C148.054 125.479 149.147 124.84 149.135 123.286Z" fill="#D7E8FE"/>
<path fill-rule="evenodd" clip-rule="evenodd" d="M127.566 137.786L148.429 124.87L144.914 118.927L123.413 130.764L127.566 137.786Z" fill="#D7E8FE"/>
<path fill-rule="evenodd" clip-rule="evenodd" d="M128.4 135.915C128.386 134.078 127.071 131.855 125.463 130.95C123.855 130.044 122.564 130.798 122.578 132.635C122.593 134.471 123.907 136.694 125.515 137.6C127.123 138.506 128.415 137.751 128.4 135.915Z" fill="#D4EAF2"/>
<path fill-rule="evenodd" clip-rule="evenodd" d="M127.21 136.61C127.196 134.774 125.881 132.551 124.273 131.645C122.665 130.739 121.374 131.493 121.389 133.33C121.403 135.166 122.718 137.39 124.326 138.295C125.933 139.201 127.225 138.447 127.21 136.61Z" fill="#D4EAF2"/>
<path fill-rule="evenodd" clip-rule="evenodd" d="M98.7755 154.603L126.376 138.481L122.223 131.459L94.6217 147.581L98.7755 154.603Z" fill="#D7E8FE"/>
<path fill-rule="evenodd" clip-rule="evenodd" d="M99.6099 152.733C99.5959 150.896 98.2807 148.673 96.6729 147.767C95.065 146.861 93.7736 147.616 93.7881 149.452C93.8021 151.288 95.1178 153.511 96.7251 154.418C98.3325 155.324 99.6244 154.569 99.6099 152.733Z" fill="#D4EAF2"/>
<path fill-rule="evenodd" clip-rule="evenodd" d="M98.567 152.145C98.504 151.061 97.6154 149.711 96.583 149.129C95.5506 148.548 94.7656 148.955 94.8295 150.039C94.8925 151.123 95.7812 152.473 96.8136 153.055C97.8455 153.637 98.631 153.229 98.567 152.145Z" fill="#381DDB"/>
<path fill-rule="evenodd" clip-rule="evenodd" d="M128.61 135.792C128.595 133.956 127.28 131.733 125.673 130.827C125.025 130.462 124.431 130.371 123.951 130.507C124.472 129.965 125.328 129.901 126.303 130.45C127.91 131.356 129.226 133.579 129.24 135.415C129.249 136.512 128.789 137.218 128.077 137.42C128.416 137.068 128.615 136.516 128.61 135.792Z" fill="#FFFFFE"/>
<path fill-rule="evenodd" clip-rule="evenodd" d="M128.611 135.792C128.596 133.956 127.282 131.733 125.674 130.827C124.87 130.374 124.145 130.337 123.623 130.641L122.059 131.555L122.805 132.814C122.941 134.485 124.066 136.387 125.468 137.317L126.213 138.576L127.777 137.663C128.299 137.358 128.618 136.711 128.611 135.792Z" fill="#381DDB"/>
<path fill-rule="evenodd" clip-rule="evenodd" d="M127.047 136.706C127.032 134.869 125.717 132.646 124.11 131.74C122.502 130.835 121.21 131.589 121.224 133.425C121.239 135.262 122.554 137.485 124.162 138.391C125.769 139.297 127.061 138.542 127.047 136.706Z" fill="#D7E8FE"/>
<path fill-rule="evenodd" clip-rule="evenodd" d="M97.2682 152.96L95.476 149.931L89.6261 153.348C88.7837 153.84 88.5027 154.917 88.9975 155.753C89.4926 156.59 90.5759 156.87 91.4179 156.378L97.2682 152.96Z" fill="#FFA3A3"/>
<path fill-rule="evenodd" clip-rule="evenodd" d="M97.628 152.153C97.622 151.361 97.0544 150.401 96.3609 150.011C95.6669 149.62 95.1101 149.946 95.1161 150.738C95.1227 151.53 95.6897 152.49 96.3837 152.88C97.0768 153.271 97.6341 152.946 97.628 152.153Z" fill="#FFA3A3"/>
<path fill-rule="evenodd" clip-rule="evenodd" d="M104.13 141.459L103.253 140.965C102.749 140.68 102.083 140.752 101.377 141.164L98.37 142.92C97.8029 143.251 97.3451 144.053 97.3502 144.707L97.3619 146.203C97.3637 146.454 97.2405 146.742 97.0594 146.954L97.1719 147.647L96.4228 147.22L96.4247 147.219C96.316 147.164 96.2469 147.039 96.2455 146.855L96.2333 145.36C96.2231 143.996 97.1771 142.324 98.3602 141.632L101.366 139.877C102.371 139.29 103.319 139.19 104.035 139.593L104.912 140.088C105.417 140.371 106.083 140.3 106.79 139.888L118.907 132.81C119.064 132.718 119.205 132.71 119.308 132.771V132.77L120.055 133.195L119.415 133.44C119.327 133.707 119.139 133.968 118.917 134.097L106.799 141.175C105.795 141.762 104.847 141.863 104.13 141.459Z" fill="#381DDB"/>
<path fill-rule="evenodd" clip-rule="evenodd" d="M104.012 141.396C103.508 141.113 102.842 141.183 102.136 141.596L99.1289 143.352C98.5618 143.683 98.104 144.485 98.1091 145.139L98.1208 146.635C98.1236 146.99 97.8762 147.424 97.5677 147.604C97.2597 147.784 97.0072 147.642 97.0044 147.287L96.9923 145.791C96.982 144.427 97.936 142.756 99.1191 142.065L102.125 140.309C103.13 139.722 104.078 139.621 104.794 140.024L105.671 140.519C106.175 140.803 106.842 140.732 107.549 140.319L119.666 133.241C119.975 133.061 120.227 133.203 120.229 133.559C120.232 133.914 119.985 134.348 119.676 134.528L107.558 141.606C106.554 142.194 105.606 142.294 104.889 141.891L104.012 141.396Z" fill="#381DDB"/>
<path fill-rule="evenodd" clip-rule="evenodd" d="M98.0715 145.386L98.0827 146.881L98.078 146.912C98.106 146.818 98.1214 146.724 98.1205 146.634L98.1088 145.139C98.1088 145.097 98.1154 145.052 98.1186 145.009C98.0902 145.137 98.0701 145.264 98.0715 145.386Z" fill="#FFFFFE"/>
<path opacity="0.2" fill-rule="evenodd" clip-rule="evenodd" d="M87.5702 121.492C85.1353 121.492 82.7004 120.958 80.8429 119.893C77.1269 117.76 77.1269 114.304 80.8424 112.173C82.7 111.107 85.1348 110.574 87.5697 110.574C90.005 110.574 92.4399 111.107 94.2979 112.173C98.014 114.304 98.014 117.76 94.2984 119.893C92.4404 120.958 90.0055 121.492 87.5702 121.492Z" fill="#000E4B"/>
<path fill-rule="evenodd" clip-rule="evenodd" d="M98.3961 111.364V108.344H97.8225C97.3068 107.462 96.4489 106.632 95.2252 105.93C90.9986 103.505 84.1448 103.505 79.9173 105.93C78.6935 106.632 77.8357 107.462 77.3209 108.344H76.7478V111.347H76.7482C76.7412 112.942 77.7965 114.538 79.9177 115.755C84.1448 118.181 90.9986 118.181 95.2257 115.755C97.3394 114.543 98.3961 112.953 98.3961 111.364Z" fill="#FC5252"/>
<path fill-rule="evenodd" clip-rule="evenodd" d="M95.2252 112.735C90.9981 115.16 84.1443 115.16 79.9168 112.735C75.6902 110.31 75.6897 106.377 79.9168 103.952C84.1439 101.527 90.9981 101.527 95.2247 103.953C99.4522 106.377 99.4523 110.31 95.2252 112.735Z" fill="#FFA3A3"/>
<path fill-rule="evenodd" clip-rule="evenodd" d="M95.2243 112.735C90.9972 115.16 84.1434 115.16 79.9163 112.735C77.8908 111.573 76.8462 110.064 76.7622 108.541C76.6707 110.196 77.7153 111.867 79.9163 113.13C84.1434 115.556 90.9972 115.556 95.2243 113.13C97.4258 111.867 98.4694 110.196 98.3783 108.541C98.2939 110.064 97.2503 111.573 95.2243 112.735Z" fill="#FFFFFE"/>
<path fill-rule="evenodd" clip-rule="evenodd" d="M82.3544 110.4C82.1719 110.296 82.0687 110.153 82.0692 110.004L82.0799 105.957C82.0804 105.649 82.5177 105.399 83.0554 105.399C83.594 105.399 84.0285 105.65 84.028 105.96L84.0192 109.314L93.8179 108.122C94.3449 108.058 94.8615 108.251 94.9731 108.553C95.0851 108.855 94.7486 109.152 94.2226 109.216L83.2453 110.551C82.9574 110.586 82.6577 110.545 82.429 110.438L82.3544 110.4Z" fill="#FFFFFE"/>
<path opacity="0.05" fill-rule="evenodd" clip-rule="evenodd" d="M31.628 76.9857L23.5859 72.3718L31.628 67.7579L39.67 72.3718L31.628 76.9857Z" fill="#000E4B"/>
<path fill-rule="evenodd" clip-rule="evenodd" d="M39.6688 66.514L31.6272 71.1275V61.9001L39.6688 57.2862V66.514Z" fill="#FC5252"/>
<path fill-rule="evenodd" clip-rule="evenodd" d="M31.628 61.9001L23.5859 57.2862L31.6275 52.6723L39.6696 57.2867L31.628 61.9001Z" fill="#FFA3A3"/>
<path fill-rule="evenodd" clip-rule="evenodd" d="M31.628 71.1275L23.5859 66.514V57.2862L31.628 61.9001V71.1275Z" fill="#FC5252"/>
<path fill-rule="evenodd" clip-rule="evenodd" d="M28.7328 66.1426L26.4833 64.8523V62.2717L28.7328 63.562V66.1426Z" fill="#FFFFFE"/>
<path fill-rule="evenodd" clip-rule="evenodd" d="M34.4077 128.219L42.7401 123.308C43.442 122.817 43.9928 121.827 43.9937 120.998L43.9993 120.348C43.9998 119.822 43.7785 119.482 43.4374 119.384L27.035 128.452L13.6775 135.631L13.6896 140.021L34.4077 128.219Z" fill="#FFFFFE"/>
<path fill-rule="evenodd" clip-rule="evenodd" d="M13.2667 142.272L13.7097 142.526L13.7913 142.386L13.5155 142.17L13.2667 142.272Z" fill="#FFFFFE"/>
<path fill-rule="evenodd" clip-rule="evenodd" d="M13.279 136.44L13.7327 136.7L13.6193 136.455L13.279 136.44Z" fill="#FFFFFE"/>
<path fill-rule="evenodd" clip-rule="evenodd" d="M0 118.159L16.0995 108.94L30.0623 116.968L13.9629 126.186L0 118.159Z" fill="#FFFFFE"/>
</svg>
