<svg width="18" height="18" viewBox="0 0 18 18" fill="none" xmlns="http://www.w3.org/2000/svg">
<path d="M12.382 8.76909C12.0214 8.52784 11.5792 8.32003 11.0679 8.15159C10.5629 7.98534 9.99199 7.83159 9.37043 7.69472C8.87918 7.57753 8.52106 7.48722 8.30793 7.4269C8.09949 7.36722 7.89168 7.28472 7.68981 7.17972C7.49512 7.07972 7.34106 6.9594 7.23199 6.82222C7.12887 6.69253 7.07887 6.54221 7.07887 6.36222C7.07887 6.06878 7.23449 5.82097 7.55481 5.60472C7.88699 5.38034 8.33481 5.2669 8.88512 5.2669C9.47793 5.2669 9.90918 5.3694 10.1673 5.57159C10.4329 5.7794 10.6648 6.07409 10.8564 6.44909C11.0214 6.74222 11.1707 6.94597 11.3145 7.07659C11.4692 7.2169 11.692 7.28909 11.9764 7.28909C12.2889 7.28909 12.5545 7.17503 12.7648 6.95003C12.9739 6.72628 13.0798 6.47003 13.0798 6.18753C13.0798 5.8944 12.9989 5.59065 12.8398 5.28597C12.6817 4.98472 12.4307 4.69409 12.0929 4.42284C11.7579 4.15315 11.3311 3.93409 10.8248 3.7719C10.3217 3.61097 9.71824 3.5294 9.03293 3.5294C8.17512 3.5294 7.41699 3.65253 6.77949 3.89472C6.13387 4.14034 5.63262 4.49878 5.28918 4.9594C4.94293 5.42347 4.76762 5.96159 4.76762 6.55847C4.76762 7.1844 4.93481 7.71753 5.26449 8.14128C5.58949 8.55972 6.03324 8.89409 6.58387 9.13503C7.12231 9.37034 7.79918 9.57909 8.59637 9.75472C9.18231 9.88065 9.65637 10.0013 10.0054 10.1135C10.3395 10.221 10.6157 10.3772 10.8248 10.5782C11.0242 10.7707 11.1214 11.0153 11.1214 11.3275C11.1214 11.7222 10.9351 12.0444 10.5529 12.3132C10.1614 12.5882 9.64106 12.7278 9.00637 12.7278C8.54449 12.7278 8.16949 12.6588 7.89106 12.5235C7.61449 12.3885 7.39762 12.2166 7.24699 12.0113C7.09043 11.7975 6.94168 11.5272 6.80574 11.2063C6.68387 10.9122 6.53262 10.6838 6.35574 10.5297C6.17074 10.3688 5.94293 10.2875 5.67949 10.2875C5.35793 10.2875 5.08824 10.3907 4.87793 10.5941C4.66543 10.7997 4.55762 11.0507 4.55762 11.34C4.55762 11.8032 4.72293 12.2838 5.04918 12.7675C5.3723 13.2469 5.79762 13.6353 6.31356 13.9219C7.03543 14.316 7.96012 14.5153 9.06293 14.5153C9.98137 14.5153 10.7889 14.3691 11.4626 14.0813C12.1426 13.7903 12.6673 13.3807 13.0226 12.8638C13.3792 12.3441 13.5601 11.751 13.5601 11.1003C13.5601 10.556 13.4551 10.0878 13.2476 9.70878C13.0411 9.3319 12.7498 9.01534 12.382 8.76909ZM12.5954 17.4003C11.8336 17.4003 11.117 17.2028 10.4904 16.8566C10.0348 16.9435 9.56481 16.9894 9.08418 16.9894C4.84356 16.9894 1.40543 13.4519 1.40543 9.08847C1.40543 8.54409 1.45918 8.01284 1.56106 7.49972C1.17262 6.8194 0.948868 6.02784 0.948868 5.18222C0.948868 2.6519 2.94262 0.600342 5.40199 0.600342C6.27324 0.600342 7.08481 0.858467 7.77137 1.30347C8.19824 1.22784 8.63699 1.18784 9.08418 1.18784C13.3254 1.18784 16.7632 4.72534 16.7632 9.08847C16.7632 9.67034 16.7014 10.2375 16.5857 10.7838C16.8817 11.3969 17.0486 12.0878 17.0486 12.8191C17.0482 15.3485 15.0548 17.4003 12.5954 17.4003Z" fill="#222222"/>
</svg>
