<svg width="18" height="20" viewBox="0 0 18 20" fill="none" xmlns="http://www.w3.org/2000/svg">
<path fill-rule="evenodd" clip-rule="evenodd" d="M11.6878 2.01575H10.6686V6.47631C10.6686 6.87437 10.7026 7.14414 10.7591 7.31509C10.8616 7.60051 11.0887 7.73401 11.4177 7.73401C11.7906 7.73401 12.1785 7.50782 12.5855 7.04133V7.65636H13.6075V2.01575H12.5855V6.32716C12.3587 6.64726 12.1442 6.80562 11.9398 6.80562C11.8029 6.80562 11.7225 6.7246 11.7001 6.56624C11.6878 6.53278 11.6878 6.40849 11.6878 6.16879V2.01575ZM7.1281 2.52614C6.91081 2.81125 6.80831 3.25197 6.80831 3.85504V5.83028C6.80831 6.42966 6.91081 6.87468 7.1281 7.15672C7.41076 7.54158 7.80882 7.73401 8.31828 7.73401C8.8302 7.73401 9.22795 7.54158 9.51061 7.15672C9.72483 6.87468 9.82733 6.42997 9.82733 5.83028V3.85504C9.82733 3.25197 9.72483 2.81094 9.51061 2.52614C9.22795 2.14036 8.8302 1.94762 8.31828 1.94762C7.80882 1.94762 7.41076 2.14036 7.1281 2.52614ZM4.87971 3.05954L4.07501 0.0871582H2.88268C3.00069 0.434069 3.12118 0.781654 3.2417 1.12932L3.2417 1.12934L3.24171 1.12936L3.24173 1.12941C3.36504 1.48514 3.48838 1.84095 3.60912 2.19621C3.97281 3.25197 4.19961 4.04777 4.30242 4.59099V7.65667H5.43552V4.59099L6.7991 0.0871582H5.65281L4.87971 3.05954ZM15.2663 19.6809C16.1425 19.583 16.8702 18.9262 17.0752 18.0365C17.3671 16.7693 17.3683 15.3855 17.3683 14.0805V14.056C17.3683 12.7583 17.3683 11.3841 17.0792 10.1245C16.8739 9.23447 16.1459 8.578 15.2697 8.4801C13.1944 8.24839 11.0939 8.24716 9.00299 8.24839C6.91143 8.24716 4.81097 8.24839 2.73567 8.4801C1.85946 8.5777 1.13209 9.23447 0.927384 10.1245C0.635824 11.392 0.632141 12.7755 0.632141 14.0805C0.632141 15.3855 0.632141 16.7693 0.924008 18.0365C1.12841 18.9265 1.85639 19.583 2.7326 19.6809C4.80759 19.9126 6.90836 19.9139 8.9993 19.9126C11.0912 19.9139 13.1907 19.9126 15.2663 19.6809ZM13.4036 12.4659C13.6957 12.0838 14.0975 11.8938 14.6149 11.8938C15.1225 11.8938 15.5249 12.0841 15.8075 12.4653C16.0196 12.7476 16.1206 13.184 16.1206 13.7803V14.9365H14.0975V15.9265C14.0975 16.4427 14.2675 16.7006 14.6149 16.7006C14.8638 16.7006 15.0093 16.5655 15.067 16.2951C15.0759 16.2402 15.0891 16.0152 15.0891 15.6101H16.1206V15.7571C16.1206 16.0834 16.1086 16.3077 16.0991 16.409C16.0653 16.633 15.9856 16.8359 15.8628 17.0151C15.5829 17.4206 15.1683 17.6203 14.6401 17.6203C14.111 17.6203 13.708 17.4298 13.4161 17.0486C13.2007 16.769 13.0911 16.3295 13.0911 15.7363V13.781C13.0911 13.1846 13.189 12.7482 13.4036 12.4659ZM14.0981 14.0949H15.1096V13.5784C15.1096 13.0625 14.9402 12.8041 14.6057 12.8041C14.2678 12.8041 14.0981 13.0622 14.0981 13.5784V14.0949ZM7.45026 16.2276C7.22592 16.5446 7.01385 16.7008 6.81067 16.7008C6.67564 16.7008 6.5986 16.6214 6.57405 16.4642C6.56484 16.4317 6.56484 16.3083 6.56484 16.0714V11.9619H5.55328V16.3749C5.55328 16.7693 5.58735 17.0357 5.64259 17.2051C5.74418 17.4881 5.96883 17.6206 6.29415 17.6206C6.66643 17.6206 7.04822 17.396 7.45026 16.935V17.5439H8.46244V11.9619H7.45026V16.2276ZM10.3485 12.4991C10.6747 12.0971 11.0218 11.8939 11.3938 11.8939C11.7958 11.8939 12.0671 12.1057 12.2019 12.5243C12.2697 12.7487 12.3044 13.1176 12.3044 13.646V15.8687C12.3044 16.3852 12.2697 16.7568 12.2019 16.9935C12.0668 17.409 11.7961 17.6208 11.3938 17.6208C11.0338 17.6208 10.687 17.4207 10.3485 17.003V17.5437H9.33722V10.0525H10.3485V12.4991ZM10.8524 16.701C11.1446 16.701 11.2925 16.4524 11.2925 15.9478V13.5656C11.2925 13.0623 11.1443 12.8039 10.8524 12.8039C10.6864 12.8039 10.5173 12.8831 10.3482 13.0503V16.4521C10.5173 16.6215 10.6864 16.701 10.8524 16.701ZM1.88019 11.1067H3.06945V17.5434H4.19456V11.1067H5.40591V10.0525H1.88019V11.1067ZM8.80597 6.02236C8.80597 6.5441 8.64792 6.80527 8.31861 6.80527C7.98899 6.80527 7.83063 6.5444 7.83063 6.02236V3.64967C7.83063 3.12793 7.98899 2.86768 8.31861 2.86768C8.64792 2.86768 8.80597 3.12762 8.80597 3.64967V6.02236Z" fill="#222222"/>
</svg>
